<?xml version="1.0" standalone="no"?>
<!DOCTYPE svg PUBLIC "-//W3C//DTD SVG 1.1//EN" "http://www.w3.org/Graphics/SVG/1.1/DTD/svg11.dtd" >
<svg xmlns="http://www.w3.org/2000/svg" xmlns:xlink="http://www.w3.org/1999/xlink" version="1.1">
<metadata>
Created by FontForge 20170104 at Sat Nov  5 23:54:19 2005
 By myTaste
Version 0.99B/ created on 06-11-94/Copr.1994 by Dutch Type Library/URW
</metadata>
<defs>
<font id="DTLNobelT" horiz-adv-x="500" >
  <font-face 
    font-family="DTLNobelT"
    font-weight="400"
    font-stretch="normal"
    units-per-em="1000"
    panose-1="2 0 5 3 4 0 0 2 0 3"
    ascent="800"
    descent="-200"
    x-height="461"
    cap-height="786"
    bbox="-156 -234 1204 1070"
    underline-thickness="20"
    underline-position="-133"
    stemh="84"
    stemv="105"
    unicode-range="U+0020-FB02"
  />
<missing-glyph 
 />
    <glyph glyph-name=".notdef" 
 />
    <glyph glyph-name="Eth" unicode="&#xd0;" horiz-adv-x="813" 
d="M773 378c0 -184 -142 -378 -414 -378h-255v364h-105v64h105v358h199c281 0 470 -116 470 -408zM649 390c0 163 -116 293 -346 293h-79v-255h112v-64h-112v-263h124c173 0 301 121 301 289z" />
    <glyph glyph-name="eth" unicode="&#xf0;" horiz-adv-x="631" 
d="M588 293c0 -156 -77 -303 -264 -303c-180 0 -268 112 -268 286c0 158 101 257 248 257c66 0 117 -23 140 -51c-10 30 -39 83 -76 141l-120 -37l-19 61l100 31c-27 39 -58 76 -88 108h132c20 -22 41 -48 62 -76l116 36l19 -61s-96 -30 -97 -30c63 -96 115 -218 115 -362z
M473 271c0 108 -71 170 -154 170c-96 0 -142 -68 -142 -169c0 -82 36 -182 145 -182c112 0 151 98 151 181z" />
    <glyph glyph-name="Lslash" unicode="&#x141;" horiz-adv-x="538" 
d="M526 -1h-422v332l-76 -35l-27 58l103 48v383h120v-328l83 39l27 -58l-110 -52v-286h302v-101z" />
    <glyph glyph-name="lslash" unicode="&#x142;" horiz-adv-x="274" 
d="M304 438l-115 -54v-384h-104v336l-87 -40l-27 58l114 53v379h104v-331l88 41z" />
    <glyph glyph-name="Scaron" unicode="&#x160;" horiz-adv-x="564" 
d="M418 937c-8 -16 -59 -75 -134 -75c-67 0 -120 58 -130 76v72c21 -29 58 -76 130 -76c68 0 120 48 134 74v-71zM522 211c0 -113 -81 -220 -250 -220c-73 0 -142 11 -234 81l65 84c73 -54 118 -62 179 -62c73 0 120 39 120 107c0 52 -39 94 -68 109l-142 74
c-87 45 -143 105 -143 209c0 124 99 205 236 205c85 0 130 -14 205 -63l-58 -88c-38 35 -93 52 -147 52c-63 0 -117 -30 -117 -99c0 -80 60 -106 86 -119l132 -67c70 -36 136 -99 136 -203z" />
    <glyph glyph-name="scaron" unicode="&#x161;" horiz-adv-x="435" 
d="M358 637c-8 -16 -59 -75 -134 -75c-67 0 -120 58 -130 76v72c21 -29 58 -76 130 -76c68 0 120 48 134 74v-71zM396 128c0 -96 -72 -143 -181 -143c-56 0 -121 17 -176 48l37 87c41 -26 98 -49 139 -49c35 0 79 6 79 49s-43 61 -78 73l-48 17c-46 14 -115 46 -115 137
c0 82 73 136 167 136c61 0 122 -12 168 -46l-49 -74c-27 21 -71 34 -116 34c-46 0 -69 -19 -69 -44c0 -38 26 -47 66 -62l48 -18c60 -23 128 -58 128 -145z" />
    <glyph glyph-name="Yacute" unicode="&#xdd;" horiz-adv-x="595" 
d="M438 1023l-99 -183h-103l99 183h103zM600 786l-250 -419v-367h-120v366l-238 420h125l176 -312l183 312h124z" />
    <glyph glyph-name="yacute" unicode="&#xfd;" horiz-adv-x="459" 
d="M374 723l-99 -183h-103l99 183h103zM455 468l-174 -532c-30 -96 -77 -140 -151 -140c-32 0 -58 3 -107 16l19 98c21 -12 44 -18 69 -18c50 0 61 32 61 68c0 9 -1 18 -4 27l-158 481h117l110 -370l110 370h108z" />
    <glyph glyph-name="Thorn" unicode="&#xde;" horiz-adv-x="650" 
d="M630 421c0 -96 -60 -232 -265 -232h-139v-189h-120v786h120v-140h126c175 0 278 -72 278 -225zM512 418c0 58 -13 125 -160 125h-126v-253h107c102 0 179 24 179 128z" />
    <glyph glyph-name="thorn" unicode="&#xfe;" horiz-adv-x="582" 
d="M547 233c0 -141 -92 -246 -207 -246c-51 0 -101 3 -151 49v-224h-104v974h104v-370c44 48 102 58 155 58c119 0 203 -96 203 -241zM443 237c0 87 -53 143 -127 143c-78 0 -133 -59 -133 -148c0 -93 52 -153 131 -153c85 0 129 64 129 158z" />
    <glyph glyph-name="Zcaron" unicode="&#x17d;" horiz-adv-x="696" 
d="M504 997l-130 -159h-72l-128 159h97l67 -78l67 78h99zM671 766l-449 -662h443v-104h-643v13l460 667h-434v99h623v-13z" />
    <glyph glyph-name="zcaron" unicode="&#x17e;" horiz-adv-x="479" 
d="M404 697l-130 -159h-72l-128 159h97l67 -78l67 78h99zM464 456l-257 -352h244v-104h-441v5l268 359h-238v97h424v-5z" />
    <glyph glyph-name="onehalf" unicode="&#xbd;" horiz-adv-x="700" 
d="M390 467h-71v239c-24 -24 -63 -28 -87 -29v55c33 3 86 25 106 59h52v-324zM592 374h-493v44h493v-44zM482 0h-295l148 150c11 11 60 56 60 89c0 37 -27 46 -58 46c-40 0 -60 -21 -60 -47v-22h-70v22c0 56 50 104 129 104c70 0 133 -26 133 -100c0 -51 -54 -102 -62 -110
l-82 -73h157v-59z" />
    <glyph glyph-name="onequarter" unicode="&#xbc;" horiz-adv-x="700" 
d="M390 467h-71v239c-24 -24 -63 -28 -87 -29v55c33 3 86 25 106 59h52v-324zM592 374h-493v44h493v-44zM462 61h-60v-62h-66v63h-170l-1 49l189 222h48v-213h60v-59zM336 120v115l-97 -115h97z" />
    <glyph glyph-name="onesuperior" unicode="&#xb9;" 
d="M310 467h-71v239c-24 -24 -63 -28 -87 -29v55c33 3 86 25 106 59h52v-324z" />
    <glyph glyph-name="threequarters" unicode="&#xbe;" horiz-adv-x="700" 
d="M466 562c0 -62 -48 -102 -133 -102c-41 0 -83 9 -126 34l34 47c36 -20 62 -27 92 -27c37 0 65 19 65 48c0 27 -19 43 -65 43h-40v55h40c33 0 53 20 53 48c0 35 -32 40 -54 40c-19 0 -48 -12 -65 -39l-44 36c32 44 72 59 118 59c85 0 114 -52 114 -92
c0 -35 -28 -60 -46 -72c31 -10 57 -39 57 -78zM592 374h-493v44h493v-44zM462 61h-60v-62h-66v63h-170l-1 49l189 222h48v-213h60v-59zM336 120v115l-97 -115h97z" />
    <glyph glyph-name="threesuperior" unicode="&#xb3;" 
d="M387 560c0 -62 -50 -102 -139 -102c-44 0 -87 9 -132 34l36 47c37 -20 65 -27 96 -27c39 0 68 19 68 48c0 27 -20 41 -68 41h-43v55h43c34 0 56 20 56 48c0 35 -34 40 -57 40c-20 0 -50 -12 -68 -39l-46 36c33 43 75 58 123 58c89 0 119 -51 119 -91
c0 -35 -29 -60 -48 -72c32 -10 60 -38 60 -76z" />
    <glyph glyph-name="twosuperior" unicode="&#xb2;" 
d="M398 468h-295l148 150c11 11 60 56 60 89c0 37 -27 46 -58 46c-40 0 -60 -21 -60 -47v-22h-70v22c0 56 50 104 129 104c70 0 133 -26 133 -100c0 -51 -54 -102 -62 -110l-82 -73h157v-59z" />
    <glyph glyph-name="brokenbar" unicode="&#xa6;" 
d="M296 428h-104v386h104v-386zM296 -215h-104v386h104v-386z" />
    <glyph glyph-name="minus" unicode="&#x2212;" horiz-adv-x="549" 
d="M524 244h-500v99h500v-99z" />
    <glyph glyph-name="multiply" unicode="&#xd7;" horiz-adv-x="549" 
d="M508 117l-63 -63l-170 170l-163 -163l-63 63l163 163l-163 163l63 63l163 -163l170 170l63 -63l-170 -170z" />
    <glyph glyph-name="space" unicode=" " horiz-adv-x="200" 
 />
    <glyph glyph-name="exclam" unicode="!" horiz-adv-x="300" 
d="M209 468l-29 -286h-61l-26 286v318h116v-318zM203 0h-107v117h107v-117z" />
    <glyph glyph-name="quotedbl" unicode="&#x22;" horiz-adv-x="457" 
d="M397 786l-25 -247h-77l-25 247h127zM187 786l-25 -247h-77l-25 247h127z" />
    <glyph glyph-name="numbersign" unicode="#" horiz-adv-x="800" 
d="M767 467h-176l-67 -174h173v-84h-205l-81 -209l-103 -1l81 210h-147l-81 -209l-103 -1l81 210h-139v84h171l67 174h-168v84h200l91 234h104l-91 -234h146l91 234h104l-91 -234h143v-84zM488 467h-147l-67 -174h147z" />
    <glyph glyph-name="dollar" unicode="$" horiz-adv-x="700" 
d="M602 211c0 -105 -70 -205 -216 -218v-111h-55v109c-66 3 -130 18 -213 81l65 84c60 -44 101 -58 148 -61v258l-59 31c-87 45 -143 105 -143 209c0 113 83 191 202 203v102h55v-100c72 -3 115 -18 184 -63l-58 -88c-33 30 -79 47 -126 51v-243l80 -41
c70 -36 136 -99 136 -203zM331 482v214c-47 -10 -83 -40 -83 -96c0 -77 56 -104 83 -118zM482 201c0 52 -39 94 -68 109l-28 15v-229c59 7 96 45 96 105z" />
    <glyph glyph-name="percent" horiz-adv-x="1000" 
d="M444 610c0 -108 -88 -195 -195 -195s-194 87 -194 195c0 107 87 194 194 194s195 -87 195 -194zM692 785l-304 -785l-83 -1l303 786h84zM946 180c0 -108 -88 -195 -195 -195s-194 87 -194 195c0 107 87 194 194 194s195 -87 195 -194zM366 610c0 64 -53 121 -117 121
s-116 -57 -116 -121c0 -65 52 -122 116 -122s117 57 117 122zM868 180c0 64 -53 121 -117 121s-116 -57 -116 -121c0 -65 52 -122 116 -122s117 57 117 122z" />
    <glyph glyph-name="ampersand" unicode="&#x26;" horiz-adv-x="700" 
d="M746 0h-132l-77 80c-53 -49 -115 -94 -218 -94c-187 0 -262 103 -262 209c0 86 59 149 114 194l37 30l-46 53c-27 31 -53 80 -53 129c0 118 82 195 196 195c124 0 182 -80 182 -175c0 -71 -42 -125 -83 -158l-60 -49l189 -196c22 25 53 74 53 74l72 -55s-32 -53 -62 -85z
M385 616c0 53 -30 90 -87 90c-50 0 -87 -39 -87 -94c0 -38 21 -72 41 -94l34 -38l43 33c29 23 56 49 56 103zM471 145l-201 210l-38 -31c-33 -27 -64 -80 -64 -124c0 -85 76 -123 151 -123s119 37 152 68z" />
    <glyph glyph-name="quotesingle" unicode="'" horiz-adv-x="247" 
d="M187 786l-25 -247h-77l-25 247h127z" />
    <glyph glyph-name="parenleft" unicode="(" horiz-adv-x="354" 
d="M316 -189c-183 138 -254 285 -254 510c0 244 78 366 252 485v-98c-81 -71 -126 -193 -126 -382c0 -225 53 -342 128 -426v-89z" />
    <glyph glyph-name="parenright" unicode=")" horiz-adv-x="354" 
d="M292 321c0 -225 -71 -372 -254 -510v89c75 84 128 201 128 426c0 189 -45 311 -126 382v98c174 -119 252 -241 252 -485z" />
    <glyph glyph-name="asterisk" unicode="*" horiz-adv-x="420" 
d="M432 597l-145 -40l94 -116l-78 -56l-83 125l-81 -124l-78 57l94 117l-143 39l30 92l140 -53l-7 148h97l-7 -152l138 54z" />
    <glyph glyph-name="plus" unicode="+" horiz-adv-x="549" 
d="M524 254h-205v-254h-90v254h-205v79h205v230h90v-230h205v-79z" />
    <glyph glyph-name="comma" unicode="," horiz-adv-x="250" 
d="M207 51c0 -62 -9 -85 -24 -113c-17 -32 -26 -42 -50 -72h-91c29 53 37 79 41 107c3 21 2 48 2 93v56h122v-71z" />
    <glyph glyph-name="hyphen" unicode="-" horiz-adv-x="313" 
d="M296 214h-277v84h277v-84z" />
    <glyph glyph-name="period" unicode="." horiz-adv-x="250" 
d="M207 0h-122v122h122v-122z" />
    <glyph glyph-name="slash" unicode="/" horiz-adv-x="522" 
d="M465 785l-304 -785h-103l303 785h104z" />
    <glyph glyph-name="zero" unicode="0" horiz-adv-x="700" 
d="M643 399c0 -251 -98 -409 -293 -409c-199 0 -293 158 -293 409s103 397 293 397c194 0 293 -146 293 -397zM529 399c0 253 -107 301 -178 301s-180 -48 -180 -301c0 -259 106 -313 179 -313c72 0 179 54 179 313z" />
    <glyph glyph-name="one" unicode="1" horiz-adv-x="700" 
d="M434 0h-121v616s-36 -33 -69 -47c-44 -19 -95 -30 -95 -30v104s72 18 121 54c42 31 83 89 83 89h81v-786z" />
    <glyph glyph-name="two" unicode="2" horiz-adv-x="700" 
d="M634 0h-570l290 332c24 30 130 145 130 230c0 103 -65 132 -141 132c-98 0 -149 -63 -149 -136v-34h-111v36c0 125 101 235 258 235c142 0 265 -58 265 -226c0 -120 -108 -236 -126 -256l-181 -206h335v-107z" />
    <glyph glyph-name="three" unicode="3" horiz-adv-x="700" 
d="M617 221c0 -142 -104 -231 -288 -231c-93 0 -185 20 -265 68l57 85c72 -41 136 -56 208 -56c98 0 168 54 168 133c0 77 -48 124 -168 124h-76v99h77c88 0 140 57 140 134c0 101 -81 118 -144 118c-48 0 -121 -33 -153 -87l-74 62c63 90 148 126 248 126
c182 0 242 -117 242 -209c0 -106 -63 -174 -110 -179c55 -6 138 -73 138 -187z" />
    <glyph glyph-name="four" unicode="4" horiz-adv-x="700" 
d="M636 153h-116v-153h-116v155h-352v96l387 535h81v-525h116v-108zM404 261v306l-227 -306h227z" />
    <glyph glyph-name="five" unicode="5" horiz-adv-x="700" 
d="M615 265c0 -164 -108 -275 -301 -275c-116 0 -238 75 -238 75l55 98s110 -64 191 -64c91 0 167 53 167 167c0 93 -79 154 -155 154c-65 0 -120 -12 -158 -62l-62 17l15 411h447v-102h-338l-9 -184c41 25 113 26 129 26c118 0 257 -83 257 -261z" />
    <glyph glyph-name="six" unicode="6" horiz-adv-x="700" 
d="M616 276c0 -174 -88 -286 -268 -286c-187 0 -264 147 -264 303c0 220 121 388 215 493h132c-91 -96 -183 -244 -203 -304c23 28 74 51 140 51c147 0 248 -99 248 -257zM495 272c0 101 -46 169 -142 169c-83 0 -154 -62 -154 -170c0 -83 39 -181 151 -181
c109 0 145 100 145 182z" />
    <glyph glyph-name="seven" unicode="7" horiz-adv-x="700" 
d="M668 786l-396 -786h-141l359 678h-403v108h581z" />
    <glyph glyph-name="eight" unicode="8" horiz-adv-x="700" 
d="M643 225c0 -137 -110 -235 -274 -235c-163 0 -282 98 -282 235c0 99 53 170 122 191c-9 9 -103 46 -103 164c0 135 115 216 265 216c159 0 256 -81 256 -216c0 -119 -92 -157 -103 -164c71 -24 119 -92 119 -191zM521 585c0 55 -40 126 -149 126
c-108 0 -157 -71 -157 -126c0 -73 63 -134 157 -134c100 0 149 60 149 134zM532 220c0 83 -50 151 -163 151c-108 0 -168 -69 -168 -151c0 -65 69 -139 168 -139c104 0 163 74 163 139z" />
    <glyph glyph-name="nine" unicode="9" horiz-adv-x="700" 
d="M627 492c0 -200 -99 -339 -235 -523l-96 57c83 93 175 220 187 277c-22 -29 -74 -51 -140 -51c-156 0 -248 99 -248 257c0 174 111 286 268 286c187 0 264 -147 264 -303zM512 514c0 83 -39 181 -151 181c-103 0 -145 -90 -145 -182c0 -94 51 -169 142 -169
c86 0 154 66 154 170z" />
    <glyph glyph-name="colon" unicode=":" horiz-adv-x="250" 
d="M207 346h-122v122h122v-122zM207 0h-122v122h122v-122z" />
    <glyph glyph-name="semicolon" unicode=";" horiz-adv-x="250" 
d="M207 346h-122v122h122v-122zM207 51c0 -62 -9 -85 -24 -113c-17 -32 -26 -42 -50 -72h-91c29 53 37 79 41 107c3 21 2 48 2 93v56h122v-71z" />
    <glyph glyph-name="less" unicode="&#x3c;" horiz-adv-x="549" 
d="M455 16l-401 251v70l400 248v-108l-303 -176l304 -177v-108z" />
    <glyph glyph-name="equal" unicode="=" horiz-adv-x="549" 
d="M502 307h-457v84h457v-84zM502 119h-457v84h457v-84z" />
    <glyph glyph-name="greater" unicode="&#x3e;" horiz-adv-x="549" 
d="M494 263l-400 -248v108l303 176l-304 177v108l401 -251v-70z" />
    <glyph glyph-name="question" unicode="?" horiz-adv-x="522" 
d="M441 612c0 -79 -62 -161 -92 -198c-42 -52 -72 -128 -71 -232h-98c0 117 14 158 41 212c34 68 113 153 113 216c0 57 -50 87 -100 87c-26 0 -82 -7 -135 -62l-54 70c51 51 121 82 209 82c82 0 187 -40 187 -175zM277 0h-97v117h97v-117z" />
    <glyph glyph-name="at" unicode="@" horiz-adv-x="1000" 
d="M935 380c0 -113 -57 -186 -102 -240h-137h-89v39c-11 -7 -19 -12 -25 -15c-45 -26 -93 -38 -133 -38c-97 0 -166 62 -166 149c0 99 99 171 234 171c21 0 47 -1 90 -7v9c0 45 -49 82 -112 82c-40 0 -73 -8 -125 -39l-39 84c66 34 133 42 188 42c111 0 191 -42 191 -152
v-239h75c23 30 61 87 61 154c0 197 -126 330 -346 330c-192 0 -348 -158 -348 -350s156 -350 348 -350h90v-85h-90c-240 0 -435 195 -435 435s195 435 435 435c262 0 435 -153 435 -415zM607 257v110c-18 4 -58 4 -72 4c-70 0 -147 -26 -147 -83c0 -43 34 -71 87 -71
c42 0 90 12 132 40z" />
    <glyph glyph-name="A" unicode="A" horiz-adv-x="673" 
d="M673 0h-127l-90 232h-239l-90 -232h-127l334 822zM419 334l-89 217l-83 -217h172z" />
    <glyph glyph-name="B" unicode="B" horiz-adv-x="662" 
d="M624 211c0 -106 -61 -211 -270 -211h-250v786h211c177 0 266 -72 266 -212c0 -85 -43 -154 -106 -171c80 -10 149 -80 149 -192zM461 572c0 65 -38 118 -172 118h-65v-255h91c101 0 146 46 146 137zM503 209c0 75 -30 127 -175 127h-104v-242h117c108 0 162 39 162 115z
" />
    <glyph glyph-name="C" unicode="C" horiz-adv-x="772" 
d="M749 133c-96 -121 -219 -146 -308 -146c-231 0 -402 165 -402 406c0 231 183 399 400 399c112 0 211 -34 286 -118l-76 -79c-69 75 -125 91 -218 91c-145 0 -270 -116 -270 -293c0 -165 122 -304 289 -304c51 0 142 13 222 120z" />
    <glyph glyph-name="D" unicode="D" horiz-adv-x="813" 
d="M773 378c0 -184 -142 -378 -414 -378h-255v786h199c281 0 470 -116 470 -408zM649 390c0 163 -116 293 -346 293h-79v-582h124c173 0 301 121 301 289z" />
    <glyph glyph-name="E" unicode="E" horiz-adv-x="624" 
d="M584 -1h-480v786h454v-102h-334v-231h321v-102h-321v-249h360v-102z" />
    <glyph glyph-name="F" unicode="F" horiz-adv-x="567" 
d="M558 683h-334v-231h321v-102h-321v-350h-120v786h454v-103z" />
    <glyph glyph-name="G" unicode="G" horiz-adv-x="846" 
d="M816 353c-1 -226 -175 -366 -374 -366c-235 0 -402 165 -402 406c0 231 179 400 410 400c133 0 228 -48 305 -120l-79 -81c-40 41 -115 96 -234 96c-167 0 -281 -127 -281 -295c0 -182 136 -302 290 -302c93 0 209 45 238 166h-245v96h372z" />
    <glyph glyph-name="H" unicode="H" horiz-adv-x="852" 
d="M748 0h-120v351h-404v-351h-120v786h120v-333h404v333h120v-786z" />
    <glyph glyph-name="I" unicode="I" horiz-adv-x="328" 
d="M224 0h-120v786h120v-786z" />
    <glyph glyph-name="J" unicode="J" horiz-adv-x="328" 
d="M224 255c0 -221 -68 -265 -231 -265v108c60 0 111 -1 111 120v568h120v-531z" />
    <glyph glyph-name="K" unicode="K" horiz-adv-x="728" 
d="M728 0h-162l-342 392v-392h-120v786h120v-336l309 336h148l-332 -357z" />
    <glyph glyph-name="L" unicode="L" horiz-adv-x="538" 
d="M526 0h-422v786h120v-685h302v-101z" />
    <glyph glyph-name="M" unicode="M" horiz-adv-x="988" 
d="M884 0h-120v509l-267 -296l-273 297v-510h-120v816l398 -432l382 432v-816z" />
    <glyph glyph-name="N" unicode="N" horiz-adv-x="865" 
d="M761 -23l-537 538v-515h-120v806l537 -538v518h120v-809z" />
    <glyph glyph-name="O" unicode="O" horiz-adv-x="885" 
d="M845 390c0 -230 -175 -406 -402 -406c-228 0 -403 176 -403 406c0 229 175 405 403 405c227 0 402 -176 402 -405zM720 390c0 174 -126 299 -277 299c-154 0 -278 -125 -278 -299c0 -160 124 -300 278 -300c151 0 277 140 277 300z" />
    <glyph glyph-name="P" unicode="P" horiz-adv-x="650" 
d="M628 551c0 -96 -60 -242 -265 -242h-139v-309h-120v786h246c175 0 278 -82 278 -235zM510 548c0 58 -13 135 -160 135h-126v-273h107c102 0 179 34 179 138z" />
    <glyph glyph-name="Q" unicode="Q" horiz-adv-x="885" 
d="M912 68l-96 -88c-52 0 -111 21 -168 58c-59 -34 -129 -54 -205 -54c-228 0 -403 176 -403 406c0 229 175 405 403 405c227 0 402 -176 402 -405c0 -109 -39 -206 -105 -277c51 -28 104 -45 172 -45zM720 390c0 174 -126 299 -277 299c-154 0 -278 -125 -278 -299
c0 -160 124 -300 278 -300c39 0 78 8 112 25c-21 22 -39 45 -59 77l84 77c20 -36 39 -63 62 -87c49 55 78 130 78 208z" />
    <glyph glyph-name="R" unicode="R" horiz-adv-x="712" 
d="M699 0h-163l-312 348v-348h-120v786h267c138 0 258 -71 258 -223c0 -134 -90 -230 -239 -230zM509 560c0 64 -30 123 -168 123h-117v-261h118c133 0 167 75 167 138z" />
    <glyph glyph-name="S" unicode="S" horiz-adv-x="564" 
d="M522 211c0 -113 -81 -220 -250 -220c-73 0 -142 11 -234 81l65 84c73 -54 118 -62 179 -62c73 0 120 39 120 107c0 52 -39 94 -68 109l-142 74c-87 45 -143 105 -143 209c0 124 99 205 236 205c85 0 130 -14 205 -63l-58 -88c-38 35 -93 52 -147 52
c-63 0 -117 -30 -117 -99c0 -80 60 -106 86 -119l132 -67c70 -36 136 -99 136 -203z" />
    <glyph glyph-name="T" unicode="T" horiz-adv-x="562" 
d="M562 683h-221v-683h-120v683h-221v103h562v-103z" />
    <glyph glyph-name="U" unicode="U" horiz-adv-x="858" 
d="M762 319c0 -163 -103 -330 -331 -330s-338 157 -338 330v467h120v-431c0 -164 86 -259 219 -259s210 95 210 259v431h120v-467z" />
    <glyph glyph-name="V" unicode="V" horiz-adv-x="624" 
d="M630 786l-335 -844l-301 844h131l178 -514l204 514h123z" />
    <glyph glyph-name="W" unicode="W" horiz-adv-x="980" 
d="M983 786l-276 -848l-218 571l-224 -571l-266 848h132l149 -514l216 554l206 -553l150 513h131z" />
    <glyph glyph-name="X" unicode="X" horiz-adv-x="722" 
d="M712 0h-143l-210 325l-211 -325h-137l279 410l-256 376h136l189 -273l188 273h125l-243 -363z" />
    <glyph glyph-name="Y" unicode="Y" horiz-adv-x="595" 
d="M600 786l-250 -419v-367h-120v366l-238 420h125l176 -312l183 312h124z" />
    <glyph glyph-name="Z" unicode="Z" horiz-adv-x="696" 
d="M671 766l-449 -662h443v-104h-643v13l460 667h-434v99h623v-13z" />
    <glyph glyph-name="bracketleft" unicode="[" horiz-adv-x="428" 
d="M384 -188h-294v973h291v-87h-184v-799h187v-87z" />
    <glyph glyph-name="backslash" unicode="\" horiz-adv-x="522" 
d="M464 0h-103l-304 785h104z" />
    <glyph glyph-name="bracketright" unicode="]" horiz-adv-x="428" 
d="M336 -188h-294v87h187v799h-184v87h291v-973z" />
    <glyph glyph-name="asciicircum" unicode="^" horiz-adv-x="800" 
d="M744 385h-98l-236 303l-237 -304h-98l301 401h70z" />
    <glyph glyph-name="underscore" unicode="_" 
d="M497 -136h-497v84h497v-84z" />
    <glyph glyph-name="grave" unicode="`" 
d="M346 540h-100l-99 183h100z" />
    <glyph glyph-name="a" unicode="a" horiz-adv-x="550" 
d="M471 0h-104v39c-11 -7 -19 -12 -25 -15c-45 -26 -93 -38 -133 -38c-97 0 -166 62 -166 149c0 99 99 171 234 171c21 0 47 -1 90 -7v9c0 60 -39 82 -112 82c-40 0 -73 -8 -125 -39l-39 84c66 34 133 42 188 42c111 0 192 -42 192 -152v-325zM367 117v110
c-18 4 -58 4 -72 4c-70 0 -147 -26 -147 -83c0 -43 34 -71 87 -71c42 0 90 12 132 40z" />
    <glyph glyph-name="b" unicode="b" horiz-adv-x="577" 
d="M545 233c0 -141 -90 -246 -205 -246c-51 0 -113 10 -158 56v-43h-97v786h104v-366c45 45 105 54 152 54c122 0 204 -95 204 -241zM443 237c0 87 -53 143 -127 143c-78 0 -133 -59 -133 -148c0 -94 54 -155 135 -155c80 0 125 66 125 160z" />
    <glyph glyph-name="c" unicode="c" horiz-adv-x="516" 
d="M491 84c-73 -74 -125 -97 -209 -97c-148 0 -250 96 -250 245c0 144 87 242 251 242c77 0 153 -27 201 -97l-78 -65c-44 53 -94 68 -135 68c-80 0 -136 -59 -136 -151s68 -148 145 -148c57 0 114 31 146 75z" />
    <glyph glyph-name="d" unicode="d" horiz-adv-x="582" 
d="M497 0h-97v47c-34 -41 -103 -60 -152 -60c-118 0 -213 102 -213 240c0 141 99 246 222 246c46 0 91 -7 136 -46v359h104v-786zM399 232c0 89 -55 148 -132 148c-74 0 -128 -60 -128 -149s55 -152 130 -152c79 0 130 60 130 153z" />
    <glyph glyph-name="e" unicode="e" horiz-adv-x="535" 
d="M503 213h-365c2 -99 75 -144 160 -144c44 0 98 21 138 69l57 -72c-78 -69 -128 -81 -208 -81c-146 0 -250 84 -250 245c0 150 103 249 242 249c113 0 226 -71 226 -239v-27zM393 291c-6 62 -51 102 -119 102c-65 0 -117 -35 -133 -102h252z" />
    <glyph glyph-name="f" unicode="f" horiz-adv-x="291" 
d="M284 365h-95v-365h-104v365h-78v90h78v162c0 117 49 173 152 173c15 0 27 0 43 -4v-88s-57 3 -69 -8c-16 -14 -22 -34 -22 -80v-155h95v-90z" />
    <glyph glyph-name="g" unicode="g" horiz-adv-x="581" 
d="M496 32c0 -76 -8 -106 -33 -144c-36 -55 -109 -85 -196 -85c-78 0 -155 26 -197 56l50 84c41 -29 92 -47 139 -47c80 0 133 38 133 104v38c-32 -32 -89 -51 -152 -51c-104 0 -205 96 -205 233c0 148 100 253 217 253c51 0 90 -5 139 -46v41h105v-436zM397 232
c0 99 -60 148 -131 148c-81 0 -127 -65 -127 -154c0 -90 61 -148 127 -148c75 0 131 47 131 154z" />
    <glyph glyph-name="h" unicode="h" horiz-adv-x="583" 
d="M505 0h-104v282c0 64 -32 100 -90 100c-77 0 -123 -43 -123 -109v-273h-103v786h104v-366c38 37 97 58 154 58c87 0 162 -47 162 -166v-312z" />
    <glyph glyph-name="i" unicode="i" horiz-adv-x="274" 
d="M189 578h-104v117h104v-117zM189 0h-104v468h104v-468z" />
    <glyph glyph-name="j" unicode="j" horiz-adv-x="274" 
d="M194 578h-104v117h104v-117zM194 -6c0 -153 -64 -176 -171 -176c-16 0 -37 7 -37 7l-7 84h19c69 0 92 4 92 97v462h104v-474z" />
    <glyph glyph-name="k" unicode="k" horiz-adv-x="504" 
d="M518 0h-140l-153 205l-36 -35v-170h-104v786h104v-489l182 171h137l-204 -191z" />
    <glyph glyph-name="l" unicode="l" horiz-adv-x="274" 
d="M189 0h-104v786h104v-786z" />
    <glyph glyph-name="m" unicode="m" horiz-adv-x="882" 
d="M804 0h-104v291c0 58 -38 91 -100 91c-67 0 -108 -44 -108 -110v-272h-97v282c0 64 -29 100 -89 100c-68 0 -117 -33 -117 -116v-266h-104v468h104v-53c47 57 131 63 155 63c62 0 107 -24 132 -69c33 44 100 69 161 69c102 0 167 -56 167 -166v-312z" />
    <glyph glyph-name="n" unicode="n" horiz-adv-x="583" 
d="M505 0h-104v282c0 72 -38 100 -94 100c-66 0 -118 -36 -118 -110v-272h-104v468h104v-52c39 45 106 62 150 62c77 0 166 -34 166 -166v-312z" />
    <glyph glyph-name="o" unicode="o" horiz-adv-x="578" 
d="M544 234c0 -147 -99 -246 -254 -246c-158 0 -255 100 -255 246s95 247 255 247c153 0 254 -96 254 -247zM439 234c0 98 -63 161 -149 161c-87 0 -150 -63 -150 -161s63 -161 151 -161c85 0 148 64 148 161z" />
    <glyph glyph-name="p" unicode="p" horiz-adv-x="582" 
d="M547 233c0 -141 -92 -246 -207 -246c-51 0 -101 3 -151 49v-224h-104v656h104v-52c44 48 102 58 155 58c119 0 203 -96 203 -241zM443 237c0 87 -53 143 -127 143c-78 0 -133 -59 -133 -148c0 -93 52 -153 131 -153c85 0 129 64 129 158z" />
    <glyph glyph-name="q" unicode="q" horiz-adv-x="582" 
d="M497 -188h-104v223c-39 -37 -106 -48 -151 -48c-113 0 -207 105 -207 242c0 140 96 243 222 243c50 0 99 -7 136 -46v42h104v-656zM399 232c0 89 -55 148 -132 148c-73 0 -128 -60 -128 -147c0 -88 57 -156 129 -156c77 0 131 63 131 155z" />
    <glyph glyph-name="r" unicode="r" horiz-adv-x="394" 
d="M416 436l-52 -97c-29 21 -50 30 -74 30c-57 0 -101 -46 -101 -108v-261h-104v468h104v-67l24 26c30 31 64 46 102 46c33 0 58 -7 101 -37z" />
    <glyph glyph-name="s" unicode="s" horiz-adv-x="435" 
d="M396 128c0 -96 -72 -143 -181 -143c-56 0 -121 17 -176 48l37 87c41 -26 98 -49 139 -49c35 0 79 6 79 49s-43 61 -78 73l-48 17c-46 14 -115 46 -115 137c0 82 73 136 167 136c61 0 122 -12 168 -46l-49 -74c-27 21 -71 34 -116 34c-46 0 -69 -19 -69 -44
c0 -38 26 -47 66 -62l48 -18c60 -23 128 -58 128 -145z" />
    <glyph glyph-name="t" unicode="t" horiz-adv-x="314" 
d="M300 2c-16 -6 -41 -9 -56 -9c-32 0 -66 8 -92 26c-46 31 -67 66 -67 150v196h-78v90h78v188h104v-188h98v-90h-98v-177c0 -66 24 -102 72 -102c15 0 39 2 39 2v-86z" />
    <glyph glyph-name="u" unicode="u" horiz-adv-x="583" 
d="M498 0h-97v58c-53 -62 -111 -69 -151 -69c-101 0 -172 62 -172 167v312h104v-283c0 -69 31 -101 92 -101c71 0 120 46 120 124v260h104v-468z" />
    <glyph glyph-name="v" unicode="v" horiz-adv-x="435" 
d="M435 468l-233 -500l-207 500h109l110 -263l111 263h110z" />
    <glyph glyph-name="w" unicode="w" horiz-adv-x="688" 
d="M701 468l-227 -507l-130 289l-130 -289l-227 507h110l124 -287l130 306l123 -305l123 286h104z" />
    <glyph glyph-name="x" unicode="x" horiz-adv-x="455" 
d="M468 0h-124l-118 174l-122 -174h-117l180 252l-161 216h124l96 -132l99 132h120l-161 -210z" />
    <glyph glyph-name="y" unicode="y" horiz-adv-x="459" 
d="M455 468l-174 -532c-30 -96 -77 -140 -151 -140c-32 0 -58 3 -107 16l19 98c21 -12 44 -18 69 -18c50 0 61 32 61 68c0 9 -1 18 -4 27l-158 481h117l110 -370l110 370h108z" />
    <glyph glyph-name="z" unicode="z" horiz-adv-x="479" 
d="M464 456l-257 -352h244v-104h-441v5l268 359h-238v97h424v-5z" />
    <glyph glyph-name="braceleft" unicode="{" 
d="M410 -200h-51c-153 0 -190 63 -190 179v163c0 56 -3 106 -70 106h-40v84h40c67 0 70 41 70 94v180c0 116 37 179 190 179h51v-77h-44c-82 0 -90 -46 -90 -99v-158s4 -142 -80 -165c85 -29 80 -173 80 -173v-137c-1 -53 8 -99 90 -99h44v-77z" />
    <glyph glyph-name="bar" unicode="|" 
d="M296 -215l-104 -1v1030h104v-1029z" />
    <glyph glyph-name="braceright" unicode="}" 
d="M439 248h-40c-67 0 -70 -50 -70 -106v-163c0 -116 -37 -179 -190 -179h-51v77h44c82 0 91 46 90 99v137s-5 144 80 173c-84 23 -80 165 -80 165v158c0 53 -8 99 -90 99h-44v77h51c153 0 190 -63 190 -179v-180c0 -53 3 -94 70 -94h40v-84z" />
    <glyph glyph-name="asciitilde" unicode="~" horiz-adv-x="549" 
d="M527 348c-3 -63 -49 -124 -112 -124c-68 0 -221 58 -247 58c-22 0 -57 3 -65 -43h-81c3 63 49 124 112 124c79 0 190 -58 247 -58c22 0 57 -3 65 43h81z" />
    <glyph glyph-name="Adieresis" unicode="&#xc4;" horiz-adv-x="673" 
d="M673 0h-127l-90 232h-239l-90 -232h-127l334 822zM419 334l-89 217l-83 -217h172zM478 870h-97v107h97v-107zM288 870h-97v107h97v-107z" />
    <glyph glyph-name="Aring" unicode="&#xc5;" horiz-adv-x="673" 
d="M673 0h-127l-90 232h-239l-90 -232h-127l334 822zM419 334l-89 217l-83 -217h172zM455 949c0 -68 -49 -127 -121 -127c-68 0 -127 51 -127 121c0 68 51 127 121 127c68 0 127 -51 127 -121zM382 948c0 29 -24 49 -53 49s-49 -24 -49 -53s24 -49 53 -49s49 24 49 53z" />
    <glyph glyph-name="Ccedilla" unicode="&#xc7;" horiz-adv-x="772" 
d="M749 133c-96 -121 -219 -146 -308 -146h-9l-12 -33c50 5 143 -10 143 -89c0 -73 -75 -99 -169 -99c-45 0 -82 8 -124 25l37 59c15 -12 45 -25 90 -25c36 0 75 7 75 41c0 31 -39 38 -55 38c-13 0 -27 2 -57 -7l-21 16l29 80c-193 30 -328 185 -328 400
c0 231 182 399 399 399c112 0 211 -34 286 -118l-76 -77c-69 75 -125 89 -218 89c-145 0 -267 -116 -267 -293c0 -165 119 -304 286 -304c51 0 142 13 222 120z" />
    <glyph glyph-name="Eacute" unicode="&#xc9;" horiz-adv-x="624" 
d="M584 -1h-480v786h454v-102h-334v-231h321v-102h-321v-249h360v-102zM458 1023l-99 -183h-103l99 183h103z" />
    <glyph glyph-name="Ntilde" unicode="&#xd1;" horiz-adv-x="865" 
d="M761 -23l-537 538v-515h-120v806l537 -538v518h120v-809zM593 964c0 -75 -32 -118 -94 -118c-40 0 -88 40 -122 40c-15 0 -25 -2 -31 -43h-90c0 56 33 121 94 121c47 0 98 -42 125 -42c21 0 30 26 31 42h87z" />
    <glyph glyph-name="Odieresis" unicode="&#xd6;" horiz-adv-x="885" 
d="M845 390c0 -230 -175 -406 -402 -406c-228 0 -403 176 -403 406c0 229 175 405 403 405c227 0 402 -176 402 -405zM720 390c0 174 -126 299 -277 299c-154 0 -278 -125 -278 -299c0 -160 124 -300 278 -300c151 0 277 140 277 300zM583 870h-97v107h97v-107zM393 870h-97
v107h97v-107z" />
    <glyph glyph-name="Udieresis" unicode="&#xdc;" horiz-adv-x="858" 
d="M762 319c0 -163 -103 -330 -331 -330s-338 157 -338 330v467h120v-431c0 -164 86 -259 219 -259s210 95 210 259v431h120v-467zM569 859h-97v107h97v-107zM379 859h-97v107h97v-107z" />
    <glyph glyph-name="aacute" unicode="&#xe1;" horiz-adv-x="550" 
d="M471 0h-104v39c-11 -7 -19 -12 -25 -15c-45 -26 -93 -38 -133 -38c-97 0 -166 62 -166 149c0 99 99 171 234 171c21 0 47 -1 90 -7v9c0 60 -39 82 -112 82c-40 0 -73 -8 -125 -39l-39 84c66 34 133 42 188 42c111 0 192 -42 192 -152v-325zM367 117v110
c-18 4 -58 4 -72 4c-70 0 -147 -26 -147 -83c0 -43 34 -71 87 -71c42 0 90 12 132 40zM410 723l-99 -183h-103l99 183h103z" />
    <glyph glyph-name="agrave" unicode="&#xe0;" horiz-adv-x="550" 
d="M471 0h-104v39c-11 -7 -19 -12 -25 -15c-45 -26 -93 -38 -133 -38c-97 0 -166 62 -166 149c0 99 99 171 234 171c21 0 47 -1 90 -7v9c0 60 -39 82 -112 82c-40 0 -73 -8 -125 -39l-39 84c66 34 133 42 188 42c111 0 192 -42 192 -152v-325zM367 117v110
c-18 4 -58 4 -72 4c-70 0 -147 -26 -147 -83c0 -43 34 -71 87 -71c42 0 90 12 132 40zM351 540h-100l-99 183h100z" />
    <glyph glyph-name="acircumflex" unicode="&#xe2;" horiz-adv-x="550" 
d="M471 0h-104v39c-11 -7 -19 -12 -25 -15c-45 -26 -93 -38 -133 -38c-97 0 -166 62 -166 149c0 99 99 171 234 171c21 0 47 -1 90 -7v9c0 60 -39 82 -112 82c-40 0 -73 -8 -125 -39l-39 84c66 34 133 42 188 42c111 0 192 -42 192 -152v-325zM367 117v110
c-18 4 -58 4 -72 4c-70 0 -147 -26 -147 -83c0 -43 34 -71 87 -71c42 0 90 12 132 40zM444 539h-99l-67 78l-67 -78h-97l128 159h72z" />
    <glyph glyph-name="adieresis" unicode="&#xe4;" horiz-adv-x="550" 
d="M471 0h-104v39c-11 -7 -19 -12 -25 -15c-45 -26 -93 -38 -133 -38c-97 0 -166 62 -166 149c0 99 99 171 234 171c21 0 47 -1 90 -7v9c0 60 -39 82 -112 82c-40 0 -73 -8 -125 -39l-39 84c66 34 133 42 188 42c111 0 192 -42 192 -152v-325zM367 117v110
c-18 4 -58 4 -72 4c-70 0 -147 -26 -147 -83c0 -43 34 -71 87 -71c42 0 90 12 132 40zM414 570h-97v107h97v-107zM224 570h-97v107h97v-107z" />
    <glyph glyph-name="atilde" unicode="&#xe3;" horiz-adv-x="550" 
d="M471 0h-104v39c-11 -7 -19 -12 -25 -15c-45 -26 -93 -38 -133 -38c-97 0 -166 62 -166 149c0 99 99 171 234 171c21 0 47 -1 90 -7v9c0 60 -39 82 -112 82c-40 0 -73 -8 -125 -39l-39 84c66 34 133 42 188 42c111 0 192 -42 192 -152v-325zM367 117v110
c-18 4 -58 4 -72 4c-70 0 -147 -26 -147 -83c0 -43 34 -71 87 -71c42 0 90 12 132 40zM449 664c0 -75 -32 -118 -94 -118c-40 0 -88 40 -122 40c-15 0 -25 -2 -31 -43h-90c0 56 33 121 94 121c47 0 98 -42 125 -42c21 0 30 26 31 42h87z" />
    <glyph glyph-name="aring" unicode="&#xe5;" horiz-adv-x="550" 
d="M471 0h-104v39c-11 -7 -19 -12 -25 -15c-45 -26 -93 -38 -133 -38c-97 0 -166 62 -166 149c0 99 99 171 234 171c21 0 47 -1 90 -7v9c0 60 -39 82 -112 82c-40 0 -73 -8 -125 -39l-39 84c66 34 133 42 188 42c111 0 192 -42 192 -152v-325zM367 117v110
c-18 4 -58 4 -72 4c-70 0 -147 -26 -147 -83c0 -43 34 -71 87 -71c42 0 90 12 132 40zM401 649c0 -68 -49 -127 -121 -127c-68 0 -127 51 -127 121c0 68 51 127 121 127c68 0 127 -51 127 -121zM328 648c0 29 -24 49 -53 49s-49 -24 -49 -53s24 -49 53 -49s49 24 49 53z" />
    <glyph glyph-name="ccedilla" unicode="&#xe7;" horiz-adv-x="516" 
d="M491 84c-67 -67 -123 -95 -207 -96l-15 -34c54 5 133 -10 133 -89c0 -73 -55 -99 -149 -99c-45 0 -82 8 -124 25l37 59c15 -12 45 -25 90 -25c36 0 65 7 65 41c0 31 -29 38 -45 38c-13 0 -27 2 -57 -7l-21 16l32 80c-116 13 -198 112 -198 239c0 144 87 242 251 242
c77 0 153 -27 201 -97l-78 -65c-44 53 -94 68 -135 68c-80 0 -136 -59 -136 -151s68 -148 145 -148c57 0 114 31 146 75z" />
    <glyph glyph-name="eacute" unicode="&#xe9;" horiz-adv-x="535" 
d="M503 213h-365c2 -99 75 -144 160 -144c44 0 98 21 138 69l57 -72c-78 -69 -128 -81 -208 -81c-146 0 -250 84 -250 245c0 150 103 249 242 249c113 0 226 -71 226 -239v-27zM393 291c-6 62 -51 102 -119 102c-65 0 -117 -35 -133 -102h252zM414 723l-99 -183h-103l99 183
h103z" />
    <glyph glyph-name="egrave" unicode="&#xe8;" horiz-adv-x="535" 
d="M503 213h-365c2 -99 75 -144 160 -144c44 0 98 21 138 69l57 -72c-78 -69 -128 -81 -208 -81c-146 0 -250 84 -250 245c0 150 103 249 242 249c113 0 226 -71 226 -239v-27zM393 291c-6 62 -51 102 -119 102c-65 0 -117 -35 -133 -102h252zM343 540h-100l-99 183h100z
" />
    <glyph glyph-name="ecircumflex" unicode="&#xea;" horiz-adv-x="535" 
d="M503 213h-365c2 -99 75 -144 160 -144c44 0 98 21 138 69l57 -72c-78 -69 -128 -81 -208 -81c-146 0 -250 84 -250 245c0 150 103 249 242 249c113 0 226 -71 226 -239v-27zM393 291c-6 62 -51 102 -119 102c-65 0 -117 -35 -133 -102h252zM450 539h-99l-67 78l-67 -78
h-97l128 159h72z" />
    <glyph glyph-name="edieresis" unicode="&#xeb;" horiz-adv-x="535" 
d="M503 213h-365c2 -99 75 -144 160 -144c44 0 98 21 138 69l57 -72c-78 -69 -128 -81 -208 -81c-146 0 -250 84 -250 245c0 150 103 249 242 249c113 0 226 -71 226 -239v-27zM393 291c-6 62 -51 102 -119 102c-65 0 -117 -35 -133 -102h252zM424 570h-97v107h97v-107z
M234 570h-97v107h97v-107z" />
    <glyph glyph-name="iacute" unicode="&#xed;" horiz-adv-x="274" 
d="M189 0h-104v468h104v-468zM267 723l-99 -183h-103l99 183h103z" />
    <glyph glyph-name="igrave" unicode="&#xec;" horiz-adv-x="274" 
d="M189 0h-104v468h104v-468zM212 540h-100l-99 183h100z" />
    <glyph glyph-name="icircumflex" unicode="&#xee;" horiz-adv-x="274" 
d="M189 0h-104v468h104v-468zM307 535h-99l-67 78l-67 -78h-97l128 159h72z" />
    <glyph glyph-name="idieresis" unicode="&#xef;" horiz-adv-x="274" 
d="M189 0h-104v468h104v-468zM279 570h-97v107h97v-107zM89 570h-97v107h97v-107z" />
    <glyph glyph-name="ntilde" unicode="&#xf1;" horiz-adv-x="583" 
d="M505 0h-104v282c0 72 -38 100 -94 100c-66 0 -118 -36 -118 -110v-272h-104v468h104v-52c39 45 106 62 150 62c77 0 166 -34 166 -166v-312zM470 664c0 -75 -32 -118 -94 -118c-40 0 -88 40 -122 40c-15 0 -25 -2 -31 -43h-90c0 56 33 121 94 121c47 0 98 -42 125 -42
c21 0 30 26 31 42h87z" />
    <glyph glyph-name="oacute" unicode="&#xf3;" horiz-adv-x="578" 
d="M544 234c0 -147 -99 -246 -254 -246c-158 0 -255 100 -255 246s95 247 255 247c153 0 254 -96 254 -247zM439 234c0 98 -63 161 -149 161c-87 0 -150 -63 -150 -161s63 -161 151 -161c85 0 148 64 148 161zM400 723l-99 -183h-103l99 183h103z" />
    <glyph glyph-name="ograve" unicode="&#xf2;" horiz-adv-x="578" 
d="M544 234c0 -147 -99 -246 -254 -246c-158 0 -255 100 -255 246s95 247 255 247c153 0 254 -96 254 -247zM439 234c0 98 -63 161 -149 161c-87 0 -150 -63 -150 -161s63 -161 151 -161c85 0 148 64 148 161zM371 540h-100l-99 183h100z" />
    <glyph glyph-name="ocircumflex" unicode="&#xf4;" horiz-adv-x="578" 
d="M544 234c0 -147 -99 -246 -254 -246c-158 0 -255 100 -255 246s95 247 255 247c153 0 254 -96 254 -247zM439 234c0 98 -63 161 -149 161c-87 0 -150 -63 -150 -161s63 -161 151 -161c85 0 148 64 148 161zM464 539h-99l-67 78l-67 -78h-97l128 159h72z" />
    <glyph glyph-name="odieresis" unicode="&#xf6;" horiz-adv-x="578" 
d="M544 234c0 -147 -99 -246 -254 -246c-158 0 -255 100 -255 246s95 247 255 247c153 0 254 -96 254 -247zM439 234c0 98 -63 161 -149 161c-87 0 -150 -63 -150 -161s63 -161 151 -161c85 0 148 64 148 161zM434 570h-97v107h97v-107zM244 570h-97v107h97v-107z" />
    <glyph glyph-name="otilde" unicode="&#xf5;" horiz-adv-x="578" 
d="M544 234c0 -147 -99 -246 -254 -246c-158 0 -255 100 -255 246s95 247 255 247c153 0 254 -96 254 -247zM439 234c0 98 -63 161 -149 161c-87 0 -150 -63 -150 -161s63 -161 151 -161c85 0 148 64 148 161zM457 664c0 -75 -32 -118 -94 -118c-40 0 -88 40 -122 40
c-15 0 -25 -2 -31 -43h-90c0 56 33 121 94 121c47 0 98 -42 125 -42c21 0 30 26 31 42h87z" />
    <glyph glyph-name="uacute" unicode="&#xfa;" horiz-adv-x="583" 
d="M498 0h-97v58c-53 -62 -111 -69 -151 -69c-101 0 -172 62 -172 167v312h104v-283c0 -69 31 -101 92 -101c71 0 120 46 120 124v260h104v-468zM411 723l-99 -183h-103l99 183h103z" />
    <glyph glyph-name="ugrave" unicode="&#xf9;" horiz-adv-x="583" 
d="M498 0h-97v58c-53 -62 -111 -69 -151 -69c-101 0 -172 62 -172 167v312h104v-283c0 -69 31 -101 92 -101c71 0 120 46 120 124v260h104v-468zM368 540h-100l-99 183h100z" />
    <glyph glyph-name="ucircumflex" unicode="&#xfb;" horiz-adv-x="583" 
d="M498 0h-97v58c-53 -62 -111 -69 -151 -69c-101 0 -172 62 -172 167v312h104v-283c0 -69 31 -101 92 -101c71 0 120 46 120 124v260h104v-468zM455 539h-99l-67 78l-67 -78h-97l128 159h72z" />
    <glyph glyph-name="udieresis" unicode="&#xfc;" horiz-adv-x="583" 
d="M498 0h-97v58c-53 -62 -111 -69 -151 -69c-101 0 -172 62 -172 167v312h104v-283c0 -69 31 -101 92 -101c71 0 120 46 120 124v260h104v-468zM433 570h-97v107h97v-107zM243 570h-97v107h97v-107z" />
    <glyph glyph-name="dagger" unicode="&#x2020;" horiz-adv-x="510" 
d="M509 467h-200v-654h-110v654h-200v99h200v220h110v-220h200v-99z" />
    <glyph glyph-name="degree" unicode="&#xb0;" horiz-adv-x="310" 
d="M276 580c0 -66 -52 -115 -123 -115c-78 0 -119 49 -119 115c0 63 54 115 122 115c71 0 120 -48 120 -115zM226 580c0 41 -29 72 -71 72s-72 -32 -72 -72c0 -45 30 -73 72 -73c43 0 71 31 71 73z" />
    <glyph glyph-name="cent" unicode="&#xa2;" horiz-adv-x="700" 
d="M617 104c-84 -84 -144 -114 -236 -117v-105h-55v107c-158 15 -264 127 -264 294c0 162 91 276 264 290v104h55v-102c87 -4 172 -37 227 -117l-94 -78c-43 51 -90 73 -133 80v-358c62 6 122 41 157 89zM326 104v356c-83 -11 -140 -79 -140 -181c0 -97 62 -160 140 -175z
" />
    <glyph glyph-name="sterling" unicode="&#xa3;" horiz-adv-x="700" 
d="M663 139c0 -102 -99 -146 -201 -146c-75 0 -149 41 -188 75c-27 -44 -94 -77 -141 -77c-95 0 -130 71 -130 113c0 88 72 109 115 109c50 0 101 -18 119 -29c11 16 16 33 16 58c0 13 2 27 -11 46h-228v50h190l-52 57h-138v50h96c-29 39 -46 85 -46 134
c0 150 138 216 280 216c157 0 263 -58 263 -195v-16h-111v14c0 73 -74 101 -154 101c-61 0 -156 -23 -150 -127c3 -46 42 -87 78 -127h258v-50h-214c13 -17 26 -37 35 -57h179v-50h-164c2 -13 4 -22 4 -38c0 -50 -24 -87 -30 -96c46 -28 80 -42 126 -42c45 0 76 17 76 73
c0 13 0 26 -4 41h112c10 -32 15 -61 15 -87zM206 118c-19 14 -39 21 -70 21c-19 0 -34 -7 -34 -30c0 -28 32 -29 32 -29c28 0 61 20 72 38z" />
    <glyph glyph-name="section" unicode="&#xa7;" horiz-adv-x="688" 
d="M645 312c0 -96 -77 -146 -151 -179c41 -26 71 -54 71 -111c0 -126 -118 -180 -267 -180c-72 0 -143 19 -185 43l37 81c22 -20 93 -44 148 -44c71 0 158 16 158 91c0 49 -69 73 -101 82l-116 39c-94 32 -193 76 -193 185c0 87 79 152 153 188c-31 20 -72 61 -72 111
c0 122 114 180 267 180c74 0 127 -13 185 -43l-37 -81c-27 23 -98 44 -148 44c-71 0 -165 -11 -165 -91c0 -42 76 -73 108 -82l116 -39c70 -24 192 -64 192 -194zM541 299c0 35 -7 74 -114 111l-150 48c-43 0 -126 -64 -126 -127c0 -35 7 -64 114 -101l150 -48
c43 0 126 54 126 117z" />
    <glyph glyph-name="bullet" unicode="&#x2022;" 
d="M430 310l-168 -198l-174 204l173 198z" />
    <glyph glyph-name="paragraph" unicode="&#xb6;" horiz-adv-x="762" 
d="M714 693h-294v-603h293v-92h-300c-220 0 -405 167 -405 392c0 227 190 395 412 395h294v-92zM622 150h-94v479h94v-479z" />
    <glyph glyph-name="germandbls" unicode="&#xdf;" horiz-adv-x="582" 
d="M562 218c0 -152 -96 -233 -212 -233c-56 0 -79 10 -107 18v96c43 -19 66 -23 107 -23c64 0 109 57 109 139c0 118 -111 218 -211 228v61h36c84 0 109 68 109 115c0 61 -40 90 -97 90c-62 0 -114 -38 -114 -149v-560h-104v577c0 162 113 213 219 213
c124 0 200 -52 200 -169c0 -72 -50 -130 -100 -150c73 -23 165 -126 165 -253z" />
    <glyph glyph-name="registered" unicode="&#xae;" horiz-adv-x="612" 
d="M571 530c0 -146 -119 -265 -265 -265s-265 119 -265 265s119 265 265 265s265 -119 265 -265zM518 530c0 117 -95 212 -212 212s-212 -95 -212 -212s95 -212 212 -212s212 95 212 212zM443 377h-81l-97 123v-123h-60v314h112c55 0 100 -30 100 -93c0 -50 -32 -93 -86 -93
zM355 601c0 17 -1 38 -58 38h-33v-94h35c53 0 56 34 56 56z" />
    <glyph glyph-name="copyright" unicode="&#xa9;" horiz-adv-x="612" 
d="M571 530c0 -146 -119 -265 -265 -265s-265 119 -265 265s119 265 265 265s265 -119 265 -265zM518 530c0 117 -95 212 -212 212s-212 -95 -212 -212s95 -212 212 -212s212 95 212 212zM441 433c-34 -68 -95 -77 -131 -77c-97 0 -156 70 -156 172c0 99 65 170 155 170
c45 0 82 -11 120 -53l-40 -48c-26 31 -54 39 -82 39c-53 0 -91 -43 -91 -108c0 -60 39 -111 98 -111c17 0 48 4 79 52z" />
    <glyph glyph-name="trademark" unicode="&#x2122;" horiz-adv-x="840" 
d="M761 392h-72v265l-108 -148h-38l-111 149v-266h-71v393h75l128 -185l121 185h76v-393zM300 718h-103v-326h-75v326h-103v67h281v-67z" />
    <glyph glyph-name="acute" unicode="&#xb4;" 
d="M353 723l-99 -183h-103l99 183h103z" />
    <glyph glyph-name="dieresis" unicode="&#xa8;" 
d="M390 570h-97v107h97v-107zM200 570h-97v107h97v-107z" />
    <glyph glyph-name="notequal" unicode="&#x2260;" horiz-adv-x="549" 
d="M464 129h-202l-42 -107h-49l42 107h-128v55h149l30 82h-179v55h198l37 104h49l-36 -104h131v-55h-151l-30 -82h181v-55z" />
    <glyph glyph-name="AE" unicode="&#xc6;" horiz-adv-x="1028" 
d="M1004 -1l-480 1v247h-254l-173 -247h-137l536 785h482v-102h-334v-231h321v-102h-321v-249h360v-102zM523 344v297l-204 -297h204z" />
    <glyph glyph-name="Oslash" unicode="&#xd8;" horiz-adv-x="889" 
d="M845 390c0 -230 -175 -406 -402 -406c-96 0 -182 31 -250 84l-108 -120l-49 47l107 119c-64 72 -103 168 -103 276c0 229 175 405 403 405c91 0 174 -29 241 -78l84 94l50 -44l-84 -94c70 -72 111 -171 111 -283zM608 633c-46 37 -103 56 -165 56
c-154 0 -278 -125 -278 -299c0 -68 22 -132 60 -184zM720 390c0 77 -24 144 -64 195l-385 -430c47 -42 106 -65 172 -65c151 0 277 140 277 300z" />
    <glyph glyph-name="infinity" unicode="&#x221e;" horiz-adv-x="713" 
d="M687 269c0 -83 -59 -145 -135 -145c-66 0 -105 26 -195 107c-76 -73 -122 -106 -203 -106c-76 0 -127 49 -127 134c0 83 59 145 135 145c66 0 105 -26 195 -107c76 71 122 106 203 106c76 0 127 -49 127 -134zM633 268c0 62 -43 87 -91 87c-49 0 -86 -27 -152 -91
c79 -67 117 -88 156 -88c62 0 87 38 87 92zM324 264c-79 67 -117 88 -156 88c-62 0 -87 -38 -87 -92c0 -62 43 -87 91 -87c49 0 86 27 152 91z" />
    <glyph glyph-name="plusminus" unicode="&#xb1;" horiz-adv-x="549" 
d="M467 263h-167v-166h-55v166h-165v55h165v166h55v-166h167v-55zM470 0h-391v55h391v-55z" />
    <glyph glyph-name="lessequal" unicode="&#x2264;" horiz-adv-x="549" 
d="M455 101l-391 163v56l391 174v-57l-321 -143l321 -130v-63zM456 0h-391v55h391v-55z" />
    <glyph glyph-name="greaterequal" unicode="&#x2265;" horiz-adv-x="549" 
d="M482 265l-391 -164v57l321 133l-321 140v63l391 -173v-56zM484 0h-391v55h391v-55z" />
    <glyph glyph-name="yen" unicode="&#xa5;" horiz-adv-x="700" 
d="M680 786l-250 -419v-49h215v-51h-215v-55h215v-50h-215v-162h-120v162h-200v50h200v55h-200v51h200v48l-238 420h130l171 -312l183 312h124z" />
    <glyph glyph-name="mu" unicode="&#xb5;" horiz-adv-x="541" 
d="M531 68c-18 -75 -68 -89 -110 -89c-50 0 -64 41 -73 76c-17 -17 -76 -65 -146 -65c-39 0 -66 10 -84 30v-28c0 -53 28 -100 28 -134c0 -45 -21 -61 -44 -61s-40 17 -40 61c0 35 24 81 24 134v327c0 72 -7 84 -53 84h-7v22h12c23 0 35 -2 58 -2c20 0 30 2 50 2h13v-286
c0 -60 24 -89 90 -89c32 0 70 10 99 28v241c0 72 -6 84 -52 84h-9v22h14c22 0 34 -2 56 -2c20 0 30 2 50 2h14v-289c0 -81 13 -98 42 -98c30 0 35 12 50 30h18z" />
    <glyph glyph-name="partialdiff" unicode="&#x2202;" horiz-adv-x="494" 
d="M462 393c0 -204 -77 -408 -255 -408c-96 0 -166 56 -166 190c0 188 100 263 200 263c73 0 102 -21 141 -63c2 24 3 37 3 75c0 133 -45 208 -169 208c-71 0 -90 -18 -112 -31l-39 50c30 15 74 28 134 28c173 0 263 -143 263 -312zM377 335c-21 23 -51 58 -112 58
c-95 0 -141 -86 -141 -218c0 -121 33 -158 92 -158c107 0 148 151 161 318z" />
    <glyph glyph-name="summation" unicode="&#x2211;" horiz-adv-x="713" 
d="M695 122c-25 -102 -30 -122 -43 -224c-26 4 -52 11 -77 11h-503c-20 0 -38 -3 -58 -3l349 398l-347 454c34 -2 70 -7 104 -7h497l6 -159h-20c-20 65 -25 114 -153 114h-263l273 -358l-294 -339h371c66 0 100 24 135 113h23z" />
    <glyph glyph-name="product" unicode="&#x220f;" horiz-adv-x="823" 
d="M803 -101h-306v23c58 0 96 11 96 81v693h-358v-693c0 -70 38 -81 97 -81v-23h-307v23c60 0 97 11 97 81v626c0 93 -67 99 -95 99v23h773v-23c-28 0 -94 -6 -94 -99v-626c0 -70 38 -81 97 -81v-23z" />
    <glyph glyph-name="pi" unicode="&#x3c0;" horiz-adv-x="549" 
d="M506 136c0 -90 -50 -147 -104 -147c-48 0 -74 41 -74 104c0 22 18 257 18 257h-131l-22 -174c-15 -121 -22 -189 -74 -189c-35 0 -52 18 -52 43c0 53 65 53 79 146l27 174h-54c-25 0 -61 -15 -77 -56h-15c6 19 30 132 134 132h338v-76h-111c-7 -83 -12 -135 -12 -174
c0 -56 7 -106 60 -106c27 0 52 34 52 66h18z" />
    <glyph glyph-name="integral" unicode="&#x222b;" horiz-adv-x="274" 
d="M291 822c0 -26 -22 -46 -52 -46c-25 0 -37 26 -50 26s-18 -15 -18 -24c-2 -37 19 -194 19 -330l-1 -216c-1 -157 -20 -249 -38 -295c-17 -44 -46 -84 -93 -84c-37 0 -58 25 -58 49c0 20 13 50 46 50c41 0 36 -24 59 -24c11 0 23 46 21 106c-2 74 -7 148 -6 314v144
c0 159 5 239 26 310c9 30 41 74 83 74c39 0 62 -17 62 -54z" />
    <glyph glyph-name="ordfeminine" unicode="&#xaa;" horiz-adv-x="362" 
d="M230 577v59c-12 2 -31 2 -39 2c-39 0 -83 -13 -83 -45c0 -23 19 -38 47 -38c24 0 51 8 75 22zM230 690v-1v1zM230 690c0 32 -23 43 -63 43c-23 0 -42 -5 -77 -24l-27 58c45 24 85 28 119 28c69 0 120 -27 120 -96v-200h-72v20l-8 -4c-28 -17 -57 -24 -82 -24
c-61 0 -105 39 -105 94c0 62 62 108 146 108c12 0 28 -1 49 -3z" />
    <glyph glyph-name="ordmasculine" unicode="&#xba;" horiz-adv-x="375" 
d="M345 642c0 -91 -61 -153 -157 -153c-98 0 -158 62 -158 153s59 153 158 153c94 0 157 -59 157 -153zM272 642c0 56 -36 92 -84 92c-50 0 -85 -36 -85 -92s35 -92 85 -92c48 0 84 37 84 92z" />
    <glyph glyph-name="Omega" unicode="&#x2126;" horiz-adv-x="768" 
d="M736 0h-295l16 140c65 25 152 93 152 264c0 142 -68 267 -224 267c-158 0 -224 -117 -224 -267c0 -173 89 -243 152 -264l16 -140h-295v150h25c12 -49 24 -61 66 -61h148l-2 28c-145 33 -214 168 -214 287c0 183 138 299 328 299c198 0 328 -115 328 -299
c0 -119 -58 -254 -214 -287l-3 -28h149c42 0 54 12 66 61h25v-150z" />
    <glyph glyph-name="ae" unicode="&#xe6;" horiz-adv-x="862" 
d="M829 213h-359v-21c9 -87 79 -123 159 -123c44 0 98 21 138 69l57 -72c-78 -69 -128 -81 -208 -81c-86 0 -157 29 -201 86c-51 -48 -109 -85 -206 -85s-166 62 -166 149c0 99 96 164 234 164h90v9c0 51 -27 82 -112 82c-40 0 -73 -8 -125 -39l-39 84c66 34 133 42 188 42
c71 0 130 -17 163 -59c43 39 100 61 166 61c111 0 221 -69 221 -239v-27zM716 291c-4 62 -43 102 -111 102c-65 0 -121 -34 -133 -102h244zM367 138v65c-1 8 -1 16 -1 24h-51c-119 0 -167 -26 -167 -79c0 -43 34 -71 87 -71c42 0 101 5 132 61z" />
    <glyph glyph-name="oslash" unicode="&#xf8;" horiz-adv-x="573" 
d="M574 460l-78 -74c29 -40 45 -92 45 -152c0 -147 -99 -246 -254 -246c-64 0 -118 17 -160 46l-83 -79l-50 45l85 81c-31 40 -47 92 -47 153c0 146 95 247 255 247c65 0 120 -17 162 -48l75 71zM377 364c-24 18 -55 28 -90 28c-87 0 -150 -60 -150 -158c0 -31 6 -58 18 -81
zM436 234c0 30 -6 56 -17 79l-221 -211c25 -17 56 -26 90 -26c85 0 148 61 148 158z" />
    <glyph glyph-name="questiondown" unicode="&#xbf;" horiz-adv-x="522" 
d="M338 481h-97v117h97v-117zM473 -107c-51 -51 -121 -82 -209 -82c-82 0 -187 40 -187 175c0 79 62 161 92 198c42 52 72 128 71 232h98c0 -117 -14 -158 -41 -212c-34 -68 -113 -153 -113 -216c0 -57 50 -87 100 -87c26 0 82 7 135 62z" />
    <glyph glyph-name="exclamdown" unicode="&#xa1;" horiz-adv-x="300" 
d="M203 482h-107v117h107v-117zM206 -187h-116v318l29 286h61l26 -286v-318z" />
    <glyph glyph-name="logicalnot" unicode="&#xac;" horiz-adv-x="549" 
d="M484 194h-110v154h-310v99h420v-253z" />
    <glyph glyph-name="radical" unicode="&#x221a;" horiz-adv-x="549" 
d="M515 912l-150 -950l-243 502l-96 -47l-16 33l146 72l197 -403l127 798z" />
    <glyph glyph-name="florin" unicode="&#x192;" horiz-adv-x="700" 
d="M671 786l-25 -91h-64c-17 0 -37 -6 -51 -15c-19 -13 -28 -32 -40 -75l-42 -151h145l-26 -97h-145l-96 -353c-32 -119 -98 -176 -205 -176c-15 0 -69 1 -90 6l23 89h65c17 0 37 7 51 17c17 13 26 27 38 68l95 349h-128l26 97h128l44 161c33 120 99 176 206 176
c15 0 69 0 91 -5z" />
    <glyph glyph-name="approxequal" unicode="&#x2248;" horiz-adv-x="549" 
d="M479 310c-25 -47 -72 -72 -112 -72c-12 0 -23 2 -33 5l-120 39c-13 3 -25 5 -34 6c-52 1 -72 -42 -81 -54l-36 37c33 48 73 71 117 71c14 0 27 -1 42 -6l121 -38c7 -2 15 -2 24 -2c19 0 59 10 82 48zM479 180c-25 -47 -72 -71 -112 -71c-12 0 -23 1 -33 4l-120 39
c-13 3 -25 5 -34 6c-52 1 -72 -42 -81 -54l-36 37c33 48 73 71 117 71c14 0 27 -1 42 -6l121 -38c7 -1 15 -2 24 -2c19 0 59 10 82 48z" />
    <glyph glyph-name="Delta" unicode="&#x2206;" horiz-adv-x="612" 
d="M608 0h-602l320 688zM484 49l-194 468l-218 -468h412z" />
    <glyph glyph-name="guillemotleft" unicode="&#xab;" horiz-adv-x="450" 
d="M419 66l-182 137v74l182 137v-105l-99 -69l99 -69v-105zM202 66l-182 137v74l182 137v-105l-99 -69l99 -69v-105z" />
    <glyph glyph-name="guillemotright" unicode="&#xbb;" horiz-adv-x="450" 
d="M430 203l-182 -137v105l99 69l-99 69v105l182 -137v-74zM213 203l-182 -137v105l99 69l-99 69v105l182 -137v-74z" />
    <glyph glyph-name="ellipsis" unicode="&#x2026;" horiz-adv-x="1000" 
d="M852 0h-107v117h107v-117zM562 0h-107v117h107v-117zM252 0h-107v117h107v-117z" />
    <glyph glyph-name="nbspace" unicode="&#xa0;" horiz-adv-x="200" 
 />
    <glyph glyph-name="Agrave" unicode="&#xc0;" horiz-adv-x="673" 
d="M673 0h-127l-90 232h-239l-90 -232h-127l334 822zM419 334l-89 217l-83 -217h172zM403 850h-100l-99 183h100z" />
    <glyph glyph-name="Atilde" unicode="&#xc3;" horiz-adv-x="673" 
d="M673 0h-127l-90 232h-239l-90 -232h-127l334 822zM419 334l-89 217l-83 -217h172zM497 974c0 -75 -32 -118 -94 -118c-40 0 -88 40 -122 40c-15 0 -25 -2 -31 -43h-90c0 56 33 121 94 121c47 0 98 -42 125 -42c21 0 30 26 31 42h87z" />
    <glyph glyph-name="Otilde" unicode="&#xd5;" horiz-adv-x="885" 
d="M845 390c0 -230 -175 -406 -402 -406c-228 0 -403 176 -403 406c0 229 175 405 403 405c227 0 402 -176 402 -405zM720 390c0 174 -126 299 -277 299c-154 0 -278 -125 -278 -299c0 -160 124 -300 278 -300c151 0 277 140 277 300zM602 964c0 -75 -32 -118 -94 -118
c-40 0 -88 40 -122 40c-15 0 -25 -2 -31 -43h-90c0 56 33 121 94 121c47 0 98 -42 125 -42c21 0 30 26 31 42h87z" />
    <glyph glyph-name="OE" unicode="&#x152;" horiz-adv-x="1222" 
d="M1204 -1h-481v96c-72 -69 -170 -111 -280 -111c-228 0 -403 176 -403 406c0 229 175 405 403 405c110 0 208 -42 280 -111v101h455v-102h-334v-231h321v-102h-321v-249h360v-102zM720 390c0 206 -126 301 -277 301c-154 0 -278 -127 -278 -301c0 -160 124 -302 278 -302
c162 0 277 96 277 302z" />
    <glyph glyph-name="oe" unicode="&#x153;" horiz-adv-x="918" 
d="M900 213h-360c0 -2 1 -9 0 -11c5 -94 76 -133 159 -133c44 0 98 21 138 69l57 -72c-78 -69 -128 -81 -208 -81c-85 0 -157 31 -201 95c-37 -57 -112 -92 -198 -92c-158 0 -255 100 -255 246s95 247 255 247c88 0 162 -33 203 -97c36 60 110 95 188 95
c108 0 222 -64 222 -239v-27zM786 291c-6 63 -43 102 -111 102c-65 0 -121 -34 -133 -102h244zM436 234c0 98 -63 161 -149 161c-87 0 -150 -63 -150 -161s63 -161 151 -161c85 0 148 64 148 161z" />
    <glyph glyph-name="endash" unicode="&#x2013;" 
d="M497 214h-497v84h497v-84z" />
    <glyph glyph-name="emdash" unicode="&#x2014;" horiz-adv-x="1000" 
d="M997 214h-997v84h997v-84z" />
    <glyph glyph-name="quotedblleft" unicode="&#x201c;" horiz-adv-x="450" 
d="M400 786c-29 -53 -39 -79 -43 -107c-3 -21 -6 -48 -6 -93v-51h-109v56c0 62 7 95 22 123c17 32 26 42 50 72h86zM200 786c-29 -53 -39 -79 -43 -107c-3 -21 -6 -48 -6 -93v-51h-109v56c0 62 7 95 22 123c17 32 26 42 50 72h86z" />
    <glyph glyph-name="quotedblright" unicode="&#x201d;" horiz-adv-x="450" 
d="M390 730c0 -62 -7 -95 -22 -123c-17 -32 -26 -42 -50 -72h-86c29 53 39 79 43 107c3 21 6 48 6 93v51h109v-56zM190 730c0 -62 -7 -95 -22 -123c-17 -32 -26 -42 -50 -72h-86c29 53 39 79 43 107c3 21 6 48 6 93v51h109v-56z" />
    <glyph glyph-name="quoteleft" unicode="&#x2018;" horiz-adv-x="250" 
d="M210 786c-29 -53 -39 -79 -43 -107c-3 -21 -6 -48 -6 -93v-51h-109v56c0 62 7 95 22 123c17 32 26 42 50 72h86z" />
    <glyph glyph-name="quoteright" unicode="&#x2019;" horiz-adv-x="250" 
d="M190 730c0 -62 -7 -95 -22 -123c-17 -32 -26 -42 -50 -72h-86c29 53 39 79 43 107c3 21 6 48 6 93v51h109v-56z" />
    <glyph glyph-name="divide" unicode="&#xf7;" horiz-adv-x="550" 
d="M328 371c0 -32 -24 -56 -58 -56c-29 0 -53 25 -53 56s25 56 56 56s55 -24 55 -56zM464 198h-379v55h379v-55zM328 81c0 -32 -24 -56 -58 -56c-29 0 -53 25 -53 56s25 56 56 56s55 -24 55 -56z" />
    <glyph glyph-name="lozenge" unicode="&#x25ca;" horiz-adv-x="494" 
d="M466 377l-194 -377h-60l-194 377l194 368h60zM406 377l-164 314l-164 -314l164 -323z" />
    <glyph glyph-name="ydieresis" unicode="&#xff;" horiz-adv-x="459" 
d="M455 468l-174 -532c-30 -96 -77 -140 -151 -140c-32 0 -58 3 -107 16l19 98c21 -12 44 -18 69 -18c50 0 61 32 61 68c0 9 -1 18 -4 27l-158 481h117l110 -370l110 370h108zM383 570h-97v107h97v-107zM193 570h-97v107h97v-107z" />
    <glyph glyph-name="Ydieresis" unicode="&#x178;" horiz-adv-x="595" 
d="M600 786l-250 -419v-367h-120v366l-238 420h125l176 -312l183 312h124zM440 870h-97v107h97v-107zM250 870h-97v107h97v-107z" />
    <glyph glyph-name="fraction" unicode="&#x2044;" horiz-adv-x="100" 
d="M231 785l-304 -785l-83 -1l303 786h84z" />
    <glyph glyph-name="currency" unicode="&#xa4;" 
d="M472 677l-85 -85c15 -25 24 -55 24 -87c0 -36 -13 -69 -34 -95l85 -85l-41 -41l-88 88c-25 -14 -54 -22 -85 -22s-59 9 -82 25l-87 -87l-41 41l86 86c-20 28 -31 62 -31 98c0 29 8 55 22 77l-85 85l41 41l82 -83c29 22 65 35 103 35c35 0 67 -12 93 -32l82 82zM354 507
c0 56 -43 104 -100 104c-56 0 -104 -43 -104 -100c0 -56 43 -104 100 -104c56 0 104 43 104 100z" />
    <glyph glyph-name="guilsinglleft" unicode="&#x2039;" horiz-adv-x="242" 
d="M202 66l-182 137v74l182 137v-105l-99 -69l99 -69v-105z" />
    <glyph glyph-name="guilsinglright" unicode="&#x203a;" horiz-adv-x="248" 
d="M228 203l-182 -137v105l99 69l-99 69v105l182 -137v-74z" />
    <glyph glyph-name="fi" unicode="&#xfb01;" horiz-adv-x="533" 
d="M455 578h-104v117h104v-117zM455 0h-104v365h-169v-365h-104v365h-78v90h78v162c0 117 49 173 152 173c15 0 27 0 43 -4v-88s-57 3 -69 -8c-16 -14 -22 -34 -22 -80v-155h273v-455z" />
    <glyph glyph-name="fl" unicode="&#xfb02;" horiz-adv-x="578" 
d="M277 365h-95v-365h-104v365h-78v90h78v162c0 117 49 173 152 173c15 0 27 0 43 -4v-88s-57 3 -69 -8c-16 -14 -22 -34 -22 -80v-155h95v-90zM503 0h-104v786h104v-786z" />
    <glyph glyph-name="daggerdbl" unicode="&#x2021;" horiz-adv-x="510" 
d="M509 97h-200v-284h-110v284h-200v99h200v271h-200v99h200v220h110v-220h200v-99h-200v-271h200v-99z" />
    <glyph glyph-name="periodcentered" unicode="&#xb7;" 
d="M361 313l-101 -119l-104 123l104 119z" />
    <glyph glyph-name="quotesinglbase" unicode="&#x201a;" horiz-adv-x="250" 
d="M200 61c0 -62 -7 -95 -22 -123c-17 -32 -26 -42 -50 -72h-86c29 53 39 79 43 107c3 21 6 48 6 93v51h109v-56z" />
    <glyph glyph-name="quotedblbase" unicode="&#x201e;" horiz-adv-x="450" 
d="M400 60c0 -62 -7 -95 -22 -123c-17 -32 -26 -42 -50 -72h-86c29 53 39 79 43 107c3 21 6 48 6 93v51h109v-56zM200 60c0 -62 -7 -95 -22 -123c-17 -32 -26 -42 -50 -72h-86c29 53 39 79 43 107c3 21 6 48 6 93v51h109v-56z" />
    <glyph glyph-name="perthousand" unicode="&#x2030;" horiz-adv-x="1000" 
d="M444 610c0 -108 -88 -195 -195 -195s-194 87 -194 195c0 107 87 194 194 194s195 -87 195 -194zM692 785l-304 -785l-83 -1l303 786h84zM946 180c0 -108 -88 -195 -195 -195s-194 87 -194 195c0 107 87 194 194 194s195 -87 195 -194zM366 610c0 64 -53 121 -117 121
s-116 -57 -116 -121c0 -65 52 -122 116 -122s117 57 117 122zM868 180c0 64 -53 121 -117 121s-116 -57 -116 -121c0 -65 52 -122 116 -122s117 57 117 122z" />
    <glyph glyph-name="Acircumflex" unicode="&#xc2;" horiz-adv-x="673" 
d="M673 0h-127l-90 232h-239l-90 -232h-127l334 822zM419 334l-89 217l-83 -217h172zM500 849h-99l-67 78l-67 -78h-97l128 159h72z" />
    <glyph glyph-name="Ecircumflex" unicode="&#xca;" horiz-adv-x="624" 
d="M584 -1h-480v786h454v-102h-334v-231h321v-102h-321v-249h360v-102zM509 839h-99l-67 78l-67 -78h-97l128 159h72z" />
    <glyph glyph-name="Aacute" unicode="&#xc1;" horiz-adv-x="673" 
d="M673 0h-127l-90 232h-239l-90 -232h-127l334 822zM419 334l-89 217l-83 -217h172zM460 1033l-99 -183h-103l99 183h103z" />
    <glyph glyph-name="Edieresis" unicode="&#xcb;" horiz-adv-x="624" 
d="M584 -1h-480v786h454v-102h-334v-231h321v-102h-321v-249h360v-102zM479 870h-97v107h97v-107zM289 870h-97v107h97v-107z" />
    <glyph glyph-name="Egrave" unicode="&#xc8;" horiz-adv-x="624" 
d="M584 -1h-480v786h454v-102h-334v-231h321v-102h-321v-249h360v-102zM421 840h-100l-99 183h100z" />
    <glyph glyph-name="Iacute" unicode="&#xcd;" horiz-adv-x="316" 
d="M224 0h-120v786h120v-786zM287 1023l-99 -183h-103l99 183h103z" />
    <glyph glyph-name="Icircumflex" unicode="&#xce;" horiz-adv-x="316" 
d="M224 0h-120v786h120v-786zM323 839h-99l-67 78l-67 -78h-97l128 159h72z" />
    <glyph glyph-name="Idieresis" unicode="&#xcf;" horiz-adv-x="316" 
d="M224 0h-120v786h120v-786zM303 870h-97v107h97v-107zM113 870h-97v107h97v-107z" />
    <glyph glyph-name="Igrave" unicode="&#xcc;" horiz-adv-x="316" 
d="M224 0h-120v786h120v-786zM246 840h-100l-99 183h100z" />
    <glyph glyph-name="Oacute" unicode="&#xd3;" horiz-adv-x="885" 
d="M845 390c0 -230 -175 -406 -402 -406c-228 0 -403 176 -403 406c0 229 175 405 403 405c227 0 402 -176 402 -405zM720 390c0 174 -126 299 -277 299c-154 0 -278 -125 -278 -299c0 -160 124 -300 278 -300c151 0 277 140 277 300zM573 1023l-99 -183h-103l99 183h103z
" />
    <glyph glyph-name="Ocircumflex" unicode="&#xd4;" horiz-adv-x="885" 
d="M845 390c0 -230 -175 -406 -402 -406c-228 0 -403 176 -403 406c0 229 175 405 403 405c227 0 402 -176 402 -405zM720 390c0 174 -126 299 -277 299c-154 0 -278 -125 -278 -299c0 -160 124 -300 278 -300c151 0 277 140 277 300zM611 839h-99l-67 78l-67 -78h-97
l128 159h72z" />
    <glyph glyph-name="apple" horiz-adv-x="804" 
d="M672 272c0 -166 -110 -281 -203 -281c-50 0 -41 17 -60 17c-20 0 -10 -17 -68 -17c-50 0 -211 65 -211 288c0 114 48 164 135 164c75 0 80 -26 104 -26c32 0 15 61 14 107c-1 59 13 116 54 146c49 36 149 21 149 90h3c6 -16 19 -72 4 -134c-25 -108 -183 -86 -183 -153
c0 -25 3 -59 29 -59c19 0 21 29 106 29c119 0 127 -91 127 -171zM582 709c-19 -45 -60 -64 -102 -93c-47 -32 -65 -62 -80 -104c37 70 65 72 112 106c36 26 67 56 70 91zM312 137c-54 115 -3 130 -3 184c0 19 -2 41 -30 41c-41 0 -52 -35 -52 -62c0 -49 55 -125 85 -163z
" />
    <glyph glyph-name="Ograve" unicode="&#xd2;" horiz-adv-x="885" 
d="M845 390c0 -230 -175 -406 -402 -406c-228 0 -403 176 -403 406c0 229 175 405 403 405c227 0 402 -176 402 -405zM720 390c0 174 -126 299 -277 299c-154 0 -278 -125 -278 -299c0 -160 124 -300 278 -300c151 0 277 140 277 300zM534 840h-100l-99 183h100z" />
    <glyph glyph-name="Uacute" unicode="&#xda;" horiz-adv-x="858" 
d="M762 319c0 -163 -103 -330 -331 -330s-338 157 -338 330v467h120v-431c0 -164 86 -259 219 -259s210 95 210 259v431h120v-467zM542 1023l-99 -183h-103l99 183h103z" />
    <glyph glyph-name="Ucircumflex" unicode="&#xdb;" horiz-adv-x="858" 
d="M762 319c0 -163 -103 -330 -331 -330s-338 157 -338 330v467h120v-431c0 -164 86 -259 219 -259s210 95 210 259v431h120v-467zM594 839h-99l-67 78l-67 -78h-97l128 159h72z" />
    <glyph glyph-name="Ugrave" unicode="&#xd9;" horiz-adv-x="858" 
d="M762 319c0 -163 -103 -330 -331 -330s-338 157 -338 330v467h120v-431c0 -164 86 -259 219 -259s210 95 210 259v431h120v-467zM523 840h-100l-99 183h100z" />
    <glyph glyph-name="dotlessi" unicode="&#x131;" horiz-adv-x="274" 
d="M189 0h-104v468h104v-468z" />
    <glyph glyph-name="circumflex" unicode="&#x2c6;" 
d="M416 539h-99l-67 78l-67 -78h-97l128 159h72z" />
    <glyph glyph-name="tilde" unicode="&#x2dc;" 
d="M419 664c0 -75 -32 -118 -94 -118c-40 0 -88 40 -122 40c-15 0 -25 -2 -31 -43h-90c0 56 33 121 94 121c47 0 98 -42 125 -42c21 0 30 26 31 42h87z" />
    <glyph glyph-name="macron" unicode="&#xaf;" 
d="M402 573h-286v82h286v-82z" />
    <glyph glyph-name="breve" unicode="&#x2d8;" 
d="M378 637c-8 -16 -59 -75 -134 -75c-67 0 -120 58 -130 76v72c21 -29 58 -76 130 -76c68 0 120 48 134 74v-71z" />
    <glyph glyph-name="dotaccent" unicode="&#x2d9;" 
d="M316 621c0 -36 -30 -66 -66 -66s-66 30 -66 66s30 66 66 66s66 -30 66 -66z" />
    <glyph glyph-name="ring" unicode="&#x2da;" 
d="M379 649c0 -68 -49 -127 -121 -127c-68 0 -127 51 -127 121c0 68 51 127 121 127c68 0 127 -51 127 -121zM306 648c0 29 -24 49 -53 49s-49 -24 -49 -53s24 -49 53 -49s49 24 49 53z" />
    <glyph glyph-name="cedilla" unicode="&#xb8;" 
d="M368 -118c0 -72 -64 -97 -143 -97c-39 0 -72 9 -99 22l32 47c25 -11 39 -14 69 -14c29 0 70 0 70 43c0 29 -33 30 -51 30c-13 0 -27 -2 -49 -10l-21 23l54 114l64 -23l-32 -61c22 4 106 17 106 -74z" />
    <glyph glyph-name="hungarumlaut" unicode="&#x2dd;" 
d="M502 732l-177 -195h-82l127 195h132zM272 732l-177 -195h-82l127 195h132z" />
    <glyph glyph-name="ogonek" unicode="&#x2db;" 
d="M348 -201c-86 0 -197 6 -197 83c0 50 42 105 106 157l52 -28c-41 -43 -75 -76 -75 -113c0 -49 87 -40 114 -40v-59z" />
    <glyph glyph-name="caron" unicode="&#x2c7;" 
d="M414 697l-130 -159h-72l-128 159h97l67 -78l67 78h99z" />
    </font>
</defs>
</svg>
