<?xml version="1.0" standalone="no"?>
<!DOCTYPE svg PUBLIC "-//W3C//DTD SVG 1.1//EN" "http://www.w3.org/Graphics/SVG/1.1/DTD/svg11.dtd" >
<svg xmlns="http://www.w3.org/2000/svg" xmlns:xlink="http://www.w3.org/1999/xlink" version="1.1">
<metadata>
Created by FontForge 20161116 at Sat Nov  5 23:54:20 2005
 By Jimmy Wärting
Version 1.0/ created on 06-11-94/Copr.1994 by Dutch Type Library/URW
</metadata>
<defs>
<font id="DTLNobelT-Light" horiz-adv-x="500" >
  <font-face 
    font-family="DTLNobelT Light"
    font-weight="300"
    font-stretch="normal"
    units-per-em="1000"
    panose-1="2 0 5 3 3 0 0 2 0 3"
    ascent="800"
    descent="-200"
    x-height="461"
    cap-height="786"
    bbox="-132 -246 1360 1033"
    underline-thickness="20"
    underline-position="-133"
    stemh="50"
    stemv="53"
    unicode-range="U+0020-FB02"
  />
<missing-glyph 
 />
    <glyph glyph-name=".notdef" 
 />
    <glyph glyph-name="Eth" unicode="&#xd0;" horiz-adv-x="800" 
d="M736 377c0 -232 -187 -377 -407 -377h-202v380h-125v38h125v368h189c235 0 420 -125 420 -409zM675 377c0 167 -68 357 -379 357h-109v-316h152v-38h-152v-328h123c213 0 365 138 365 325z" />
    <glyph glyph-name="eth" unicode="&#xf0;" horiz-adv-x="589" 
d="M555 676c0 0 -116 -36 -117 -36c57 -93 101 -210 101 -354c0 -175 -89 -295 -242 -295c-145 0 -247 97 -247 276c0 131 93 242 237 242c71 0 134 -26 181 -86c-9 60 -40 133 -81 201l-126 -38l-11 36l116 35c-35 52 -75 99 -115 131h71c31 -32 64 -70 95 -115l127 39z
M480 262c0 163 -128 198 -188 198c-78 0 -182 -63 -182 -195c0 -130 62 -227 185 -227c111 0 185 107 185 224z" />
    <glyph glyph-name="Lslash" unicode="&#x141;" horiz-adv-x="515" 
d="M489 0h-362v366l-116 -54l-19 35l135 63v376h60v-348l131 61l19 -35l-150 -70v-342h302v-52z" />
    <glyph glyph-name="lslash" unicode="&#x142;" horiz-adv-x="274" 
d="M314 464l-150 -70v-394h-54v369l-122 -57l-19 35l141 66v373h54v-348l131 61z" />
    <glyph glyph-name="Scaron" unicode="&#x160;" horiz-adv-x="546" 
d="M372 967l-81 -125h-64l-80 125h48l64 -101l65 101h48zM465 197c0 -107 -74 -205 -222 -205c-71 0 -145 19 -205 102l43 33c38 -40 81 -84 172 -84c68 0 150 50 150 143c0 66 -39 120 -84 145l-142 80c-77 43 -129 100 -129 199c0 115 91 189 208 189
c58 0 139 -15 183 -89l-43 -27c-48 61 -96 67 -140 67c-60 0 -147 -38 -147 -133c0 -105 71 -139 102 -156l132 -74c61 -33 122 -92 122 -190z" />
    <glyph glyph-name="scaron" unicode="&#x161;" horiz-adv-x="428" 
d="M331 667l-81 -125h-64l-80 125h48l64 -101l65 101h48zM373 120c0 -90 -66 -131 -158 -131c-53 0 -102 10 -144 38l20 48c38 -25 87 -40 124 -40c43 0 102 19 102 76c0 62 -52 77 -93 95l-49 22c-36 15 -99 45 -99 130c0 76 65 123 144 123c48 0 94 -8 133 -31l-22 -44
c-30 17 -74 30 -108 30c-61 0 -93 -32 -93 -72c0 -55 37 -74 81 -94l48 -22c51 -22 114 -45 114 -128z" />
    <glyph glyph-name="Yacute" unicode="&#xdd;" horiz-adv-x="580" 
d="M383 1023l-99 -183h-53l99 183h53zM576 786l-256 -414v-372h-60v371l-257 414h68l222 -355l218 356h65z" />
    <glyph glyph-name="yacute" unicode="&#xfd;" horiz-adv-x="459" 
d="M343 723l-99 -183h-53l99 183h53zM420 468l-160 -530c-31 -103 -84 -142 -150 -142c-24 0 -41 3 -61 9l15 49c16 -6 30 -10 47 -10c79 0 99 95 101 123l-172 501h59l142 -426l122 426h57z" />
    <glyph glyph-name="Thorn" unicode="&#xde;" horiz-adv-x="578" 
d="M571 412c0 -104 -75 -206 -265 -206h-119v-206h-60v786h58v-160h138c148 0 248 -67 248 -214zM513 411c0 63 -26 163 -190 163h-136v-316h117c132 0 209 60 209 153z" />
    <glyph glyph-name="thorn" unicode="&#xfe;" horiz-adv-x="582" 
d="M532 226c0 -120 -81 -237 -217 -237c-97 0 -156 47 -179 89v-278h-53v986h53v-400c21 41 79 93 181 93c124 0 215 -85 215 -253zM473 233c0 111 -54 198 -164 198c-117 0 -170 -97 -170 -204c0 -77 46 -189 175 -189c95 0 159 78 159 195z" />
    <glyph glyph-name="Zcaron" unicode="&#x17d;" horiz-adv-x="696" 
d="M451 967l-81 -125h-64l-80 125h48l64 -101l65 101h48zM639 786l-489 -734h485v-52h-585l486 734h-458v52h561z" />
    <glyph glyph-name="zcaron" unicode="&#x17e;" horiz-adv-x="458" 
d="M344 667l-81 -125h-64l-80 125h48l64 -101l65 101h48zM432 461l-299 -411h291v-50h-396l302 409h-274v52h376z" />
    <glyph glyph-name="onehalf" unicode="&#xbd;" horiz-adv-x="700" 
d="M385 472h-61v247c-30 -31 -64 -35 -87 -37v46c34 4 84 26 104 58h44v-314zM592 374h-493v44h493v-44zM477 5h-277l139 141c11 12 61 59 61 93c0 41 -29 51 -63 51c-44 0 -65 -24 -65 -52v-17h-60v17c0 54 48 99 124 99c67 0 128 -24 128 -95c0 -49 -53 -99 -61 -106
l-91 -82h165v-49z" />
    <glyph glyph-name="onequarter" unicode="&#xbc;" horiz-adv-x="700" 
d="M385 472h-61v247c-30 -31 -64 -35 -87 -37v46c34 4 84 26 104 58h44v-314zM592 374h-493v44h493v-44zM457 66h-60v-62h-56v63h-170l-1 42l186 219h41v-213h60v-49zM341 115v134l-113 -134h113z" />
    <glyph glyph-name="onesuperior" unicode="&#xb9;" 
d="M305 472h-61v247c-30 -31 -64 -35 -87 -37v46c34 4 84 26 104 58h44v-314z" />
    <glyph glyph-name="threequarters" unicode="&#xbe;" horiz-adv-x="700" 
d="M461 562c0 -59 -47 -97 -128 -97c-39 0 -78 8 -119 31l29 39c35 -19 60 -26 90 -26c40 0 70 21 70 53c0 29 -20 48 -70 48h-35v45h35c36 0 58 22 58 53c0 39 -35 45 -59 45c-19 0 -48 -12 -66 -37l-36 30c30 40 68 53 111 53c81 0 109 -49 109 -87c0 -33 -27 -57 -53 -73
c40 -13 64 -40 64 -77zM592 374h-493v44h493v-44zM457 66h-60v-62h-56v63h-170l-1 42l186 219h41v-213h60v-49zM341 115v134l-113 -134h113z" />
    <glyph glyph-name="threesuperior" unicode="&#xb3;" 
d="M382 560c0 -59 -49 -97 -134 -97c-41 0 -82 8 -125 30l31 40c36 -19 63 -26 94 -26c42 0 73 22 73 53c0 29 -21 46 -73 46h-38v45h38c37 0 61 22 61 53c0 39 -37 45 -62 45c-20 0 -50 -12 -69 -37l-38 30c32 39 71 52 116 52c85 0 114 -48 114 -86c0 -33 -28 -56 -54 -73
c40 -13 66 -39 66 -75z" />
    <glyph glyph-name="twosuperior" unicode="&#xb2;" 
d="M393 473h-277l139 141c11 12 61 59 61 93c0 41 -29 51 -63 51c-44 0 -65 -24 -65 -52v-17h-60v17c0 54 48 99 124 99c67 0 128 -24 128 -95c0 -49 -53 -99 -61 -106l-91 -82h165v-49z" />
    <glyph glyph-name="brokenbar" unicode="&#xa6;" horiz-adv-x="292" 
d="M176 397h-60v389h60v-389zM176 -188h-60v389h60v-389z" />
    <glyph glyph-name="minus" unicode="&#x2212;" horiz-adv-x="549" 
d="M508 270h-468v50h468v-50z" />
    <glyph glyph-name="multiply" unicode="&#xd7;" horiz-adv-x="549" 
d="M486 100l-41 -45l-169 188l-164 -180l-41 45l164 180l-164 180l41 45l164 -180l169 188l41 -45l-169 -188z" />
    <glyph glyph-name="space" unicode=" " horiz-adv-x="200" 
 />
    <glyph glyph-name="exclam" unicode="!" horiz-adv-x="280" 
d="M171 478l-18 -280h-28l-16 279v309h62v-308zM166 0h-62v82h62v-82z" />
    <glyph glyph-name="quotedbl" unicode="&#x22;" horiz-adv-x="433" 
d="M362 787l-19 -247h-43l-19 247h81zM152 787l-19 -247h-43l-19 247h81z" />
    <glyph glyph-name="numbersign" unicode="#" horiz-adv-x="749" 
d="M749 487h-171l-79 -214h180v-54h-200l-81 -218l-68 -1l80 219h-181l-81 -218l-68 -1l80 219h-146v54h166l79 214h-175v58h198l88 241h69l-91 -244h181l91 244h69l-91 -244h151v-55zM509 487h-181l-79 -214h181z" />
    <glyph glyph-name="dollar" unicode="$" horiz-adv-x="546" 
d="M465 197c0 -101 -58 -193 -189 -204v-78h-35v77c-72 0 -142 18 -203 102l43 33c37 -39 74 -81 160 -84v330l-64 38c-77 43 -129 100 -129 199c0 111 81 184 193 189v55h35v-55c57 -2 122 -20 163 -89l-43 -27c-43 55 -80 65 -120 67v-322l67 -41c61 -33 122 -92 122 -190
zM241 442v308c-59 -5 -132 -44 -132 -133c0 -105 71 -139 102 -156zM403 186c0 66 -39 120 -84 145l-43 28v-315c64 7 127 56 127 142z" />
    <glyph glyph-name="percent" horiz-adv-x="1000" 
d="M427 630c0 -98 -81 -177 -179 -177s-177 79 -177 177s79 177 177 177s179 -79 179 -177zM660 785l-281 -785h-55l280 785h56zM920 162c0 -98 -81 -177 -179 -177s-177 79 -177 177s89 177 187 177s169 -79 169 -177zM374 630c0 69 -56 125 -125 125s-125 -56 -125 -125
s56 -125 125 -125s125 56 125 125zM867 162c0 69 -56 125 -125 125s-125 -56 -125 -125s56 -125 125 -125s125 56 125 125z" />
    <glyph glyph-name="ampersand" unicode="&#x26;" horiz-adv-x="694" 
d="M694 0h-68l-87 96c-57 -58 -114 -110 -213 -110c-167 0 -237 99 -237 197c0 83 55 143 105 187l54 47l-60 61c-40 41 -61 102 -61 147c0 97 85 171 185 171c106 0 170 -86 170 -164c0 -69 -37 -116 -99 -171l-59 -52l211 -235s40 56 54 76l44 -35
c-15 -23 -36 -50 -61 -82zM423 631c0 69 -47 117 -118 117c-61 0 -120 -52 -120 -121c0 -48 8 -75 60 -127l46 -46l48 43c50 44 84 84 84 134zM500 136l-215 240l-51 -47c-39 -33 -84 -87 -84 -141c0 -95 88 -152 176 -152c60 0 134 54 174 100z" />
    <glyph glyph-name="quotesingle" unicode="'" horiz-adv-x="223" 
d="M152 787l-19 -247h-43l-19 247h81z" />
    <glyph glyph-name="parenleft" unicode="(" horiz-adv-x="350" 
d="M318 -199c-145 131 -224 300 -224 520c0 237 90 378 222 495v-58c-80 -88 -156 -216 -156 -436c0 -260 91 -369 158 -463v-58z" />
    <glyph glyph-name="parenright" unicode=")" horiz-adv-x="350" 
d="M256 321c0 -220 -85 -383 -224 -520v49c75 100 158 212 158 472c0 220 -76 348 -156 436v58c132 -117 222 -258 222 -495z" />
    <glyph glyph-name="asterisk" unicode="*" horiz-adv-x="417" 
d="M385 601l-145 -38l103 -138l-43 -28l-87 149l-93 -141l-43 31l111 127l-150 51l17 47l143 -62l-10 157h51l-9 -158l140 52z" />
    <glyph glyph-name="plus" unicode="+" horiz-adv-x="549" 
d="M509 270h-205v-269h-58v269h-205v50h205v244h58v-244h205v-50z" />
    <glyph glyph-name="comma" unicode="," horiz-adv-x="247" 
d="M158 39c0 -102 -17 -129 -48 -173h-39c17 52 25 85 25 136v80h62v-43z" />
    <glyph glyph-name="hyphen" unicode="-" horiz-adv-x="315" 
d="M266 224h-217v54h217v-54z" />
    <glyph glyph-name="period" unicode="." horiz-adv-x="228" 
d="M145 0h-62v82h62v-82z" />
    <glyph glyph-name="slash" unicode="/" horiz-adv-x="486" 
d="M411 785l-281 -785h-55l280 785h56z" />
    <glyph glyph-name="zero" unicode="0" horiz-adv-x="700" 
d="M625 397c0 -266 -101 -407 -275 -407c-188 0 -275 159 -275 407c0 267 112 396 275 396c191 0 275 -135 275 -396zM567 397c0 306 -137 346 -216 346c-65 0 -218 -40 -218 -346c0 -312 162 -358 217 -358c68 0 217 46 217 358z" />
    <glyph glyph-name="one" unicode="1" horiz-adv-x="700" 
d="M403 0h-60v664c-27 -35 -87 -68 -171 -68v56c117 0 157 71 190 134h41v-786z" />
    <glyph glyph-name="two" unicode="2" horiz-adv-x="700" 
d="M617 0h-486l246 307c16 20 139 154 139 276c0 121 -82 160 -173 160c-101 0 -176 -54 -176 -165h-54c0 122 80 214 228 214c129 0 237 -51 237 -212c0 -101 -84 -215 -123 -263l-214 -261h376v-56z" />
    <glyph glyph-name="three" unicode="3" horiz-adv-x="700" 
d="M571 208c0 -136 -105 -217 -252 -217c-77 0 -150 19 -213 86l37 36c58 -60 107 -74 176 -74c101 0 193 50 193 168c0 67 -38 170 -190 170h-59v54h60c104 0 162 84 162 171c0 134 -111 143 -159 143c-67 0 -135 -33 -170 -91l-36 31c40 67 122 112 207 112
c158 0 217 -93 217 -194c0 -93 -65 -187 -139 -195c86 -5 166 -82 166 -200z" />
    <glyph glyph-name="four" unicode="4" horiz-adv-x="700" 
d="M606 206h-116v-206h-56v208h-352v55l377 523h31v-523h116v-57zM434 263v409l-295 -409h295z" />
    <glyph glyph-name="five" unicode="5" horiz-adv-x="700" 
d="M602 258c0 -124 -66 -267 -268 -267c-89 0 -178 45 -219 96l44 36c36 -39 90 -83 183 -83c161 0 203 134 203 217c0 120 -78 200 -180 200c-75 0 -132 -32 -177 -86l-32 18l13 398h388v-51h-341l-9 -284c54 47 148 56 162 56c116 0 233 -75 233 -250z" />
    <glyph glyph-name="six" unicode="6" horiz-adv-x="700" 
d="M600 267c0 -179 -102 -276 -247 -276c-153 0 -242 120 -242 295c0 235 117 400 217 502h71c-100 -81 -199 -249 -217 -365c47 60 110 86 181 86c144 0 237 -111 237 -242zM540 265c0 132 -104 195 -182 195c-60 0 -188 -35 -188 -198c0 -117 74 -224 185 -224
c123 0 185 97 185 227z" />
    <glyph glyph-name="seven" unicode="7" horiz-adv-x="700" 
d="M619 786l-369 -786h-65l353 730h-421v56h502z" />
    <glyph glyph-name="eight" unicode="8" horiz-adv-x="700" 
d="M608 222c0 -135 -105 -231 -250 -231c-144 0 -250 98 -250 231c0 99 63 178 130 198c-38 20 -119 51 -119 186c0 92 87 191 241 191c180 0 233 -105 233 -191c0 -118 -69 -160 -121 -187c69 -19 136 -80 136 -197zM535 606c0 90 -77 142 -174 142
c-96 0 -183 -51 -183 -142c0 -119 77 -157 183 -157c103 0 174 49 174 157zM549 222c0 57 -32 175 -191 175c-146 0 -191 -97 -191 -175c0 -95 78 -183 191 -183c125 0 191 96 191 183z" />
    <glyph glyph-name="nine" unicode="9" horiz-adv-x="700" 
d="M592 498c0 -235 -164 -409 -264 -511l-39 33c121 111 213 266 236 348c-46 -58 -110 -93 -187 -93c-134 0 -234 111 -234 256c0 183 125 262 253 262c159 0 235 -127 235 -295zM535 532c0 110 -61 213 -181 213c-119 0 -191 -77 -191 -212c0 -150 103 -207 181 -207
c51 0 191 35 191 206z" />
    <glyph glyph-name="colon" unicode=":" horiz-adv-x="250" 
d="M156 386h-62v82h62v-82zM156 0h-62v82h62v-82z" />
    <glyph glyph-name="semicolon" unicode=";" horiz-adv-x="250" 
d="M156 386h-62v82h62v-82zM156 39c0 -102 -17 -129 -48 -173h-39c17 52 25 85 25 136v80h62v-43z" />
    <glyph glyph-name="less" unicode="&#x3c;" horiz-adv-x="549" 
d="M453 16l-369 257v58l368 254v-78l-319 -205l320 -208v-78z" />
    <glyph glyph-name="equal" unicode="=" horiz-adv-x="549" 
d="M487 333h-425v59h425v-59zM487 120h-425v59h425v-59z" />
    <glyph glyph-name="greater" unicode="&#x3e;" horiz-adv-x="549" 
d="M465 269l-368 -254v78l319 205l-320 208v78l369 -257v-58z" />
    <glyph glyph-name="question" unicode="?" horiz-adv-x="443" 
d="M389 631c0 -78 -54 -157 -81 -194c-42 -55 -81 -124 -81 -240h-61c0 78 14 128 38 183c32 74 119 146 119 248c0 82 -62 105 -121 105c-32 0 -95 -13 -117 -86l-55 16c12 62 75 124 182 124c64 0 177 -27 177 -156zM228 0h-62v82h62v-82z" />
    <glyph glyph-name="at" unicode="@" horiz-adv-x="966" 
d="M902 382c0 -108 -51 -180 -93 -233h-194v45c-57 -45 -112 -56 -173 -56c-79 0 -162 29 -162 143c0 72 53 155 210 155c20 0 95 -3 125 -9v48c0 85 -57 106 -147 106c-53 0 -92 -11 -131 -36l-23 47c51 25 113 38 176 38c108 0 179 -32 179 -136v-289h108
c28 39 68 103 68 177c0 213 -132 359 -362 359c-201 0 -364 -172 -364 -380c0 -209 163 -380 364 -380h74v-55h-74c-231 0 -419 195 -419 435s188 435 419 435c252 0 419 -153 419 -414zM609 242v141c-36 6 -82 9 -137 9c-83 0 -143 -33 -143 -115c0 -59 45 -94 123 -94
c53 0 118 27 157 59z" />
    <glyph glyph-name="A" unicode="A" horiz-adv-x="673" 
d="M628 0h-61l-90 265h-281l-90 -265h-61l289 822zM455 315l-125 349l-117 -349h242z" />
    <glyph glyph-name="B" unicode="B" horiz-adv-x="682" 
d="M588 196c0 -100 -75 -196 -241 -196h-220v786h181c155 0 236 -88 236 -197c0 -101 -51 -165 -115 -195c81 -7 159 -76 159 -198zM484 587c0 51 -18 147 -197 147h-100v-323h121c122 0 176 75 176 176zM526 194c0 81 -39 165 -205 165h-134v-307h147c131 0 192 64 192 142
z" />
    <glyph glyph-name="C" unicode="C" horiz-adv-x="777" 
d="M744 100c-80 -90 -203 -113 -283 -113c-224 0 -397 151 -397 407c0 214 166 398 391 398c88 0 185 -23 252 -81l-40 -45c-59 42 -120 73 -211 73c-175 0 -327 -156 -327 -345c0 -198 141 -352 333 -352c86 0 171 33 244 100z" />
    <glyph glyph-name="D" unicode="D" horiz-adv-x="800" 
d="M736 377c0 -232 -187 -377 -407 -377h-202v786h189c235 0 420 -125 420 -409zM675 377c0 167 -68 357 -379 357h-109v-682h123c213 0 365 138 365 325z" />
    <glyph glyph-name="E" unicode="E" horiz-adv-x="577" 
d="M547 0h-420v786h394v-52h-334v-304h321v-52h-321v-326h360v-52z" />
    <glyph glyph-name="F" unicode="F" horiz-adv-x="521" 
d="M521 734h-334v-305h321v-52h-321v-377h-60v786h394v-52z" />
    <glyph glyph-name="G" unicode="G" horiz-adv-x="922" 
d="M851 335c-22 -195 -165 -348 -390 -348c-227 0 -397 155 -397 407c0 216 171 398 393 398c128 0 211 -28 278 -90l-41 -45c-70 60 -137 82 -237 82c-177 0 -327 -155 -327 -345c0 -220 165 -354 330 -354c125 0 269 71 318 239h-249v56h322z" />
    <glyph glyph-name="H" unicode="H" horiz-adv-x="839" 
d="M711 0h-60v377h-464v-377h-60v786h60v-357h464v357h60v-786z" />
    <glyph glyph-name="I" unicode="I" horiz-adv-x="314" 
d="M187 0h-60v786h60v-786z" />
    <glyph glyph-name="J" unicode="J" horiz-adv-x="336" 
d="M226 213c0 -166 -87 -218 -211 -218v51c62 0 151 11 151 151v590h60v-574z" />
    <glyph glyph-name="K" unicode="K" horiz-adv-x="658" 
d="M658 0h-85l-386 415v-415h-60v786h60v-341l359 341h73l-366 -350z" />
    <glyph glyph-name="L" unicode="L" horiz-adv-x="515" 
d="M489 0h-362v786h60v-734h302v-52z" />
    <glyph glyph-name="M" unicode="M" horiz-adv-x="974" 
d="M847 0h-60v648l-297 -387l-303 387v-648h-60v816l365 -459l355 458v-815z" />
    <glyph glyph-name="N" unicode="N" horiz-adv-x="851" 
d="M724 -31l-537 681v-650h-60v821l537 -681v660h60v-831z" />
    <glyph glyph-name="O" unicode="O" horiz-adv-x="918" 
d="M854 390c0 -222 -146 -403 -395 -403c-255 0 -395 181 -395 403c0 220 144 402 395 402c249 0 395 -182 395 -402zM789 390c0 218 -150 347 -330 347c-182 0 -330 -126 -330 -344c0 -211 148 -353 330 -353c180 0 330 133 330 350z" />
    <glyph glyph-name="P" unicode="P" horiz-adv-x="578" 
d="M571 562c0 -104 -75 -226 -265 -226h-119v-336h-60v786h196c148 0 248 -77 248 -224zM513 561c0 63 -26 173 -190 173h-136v-346h117c132 0 209 80 209 173z" />
    <glyph glyph-name="Q" unicode="Q" horiz-adv-x="918" 
d="M854 390c0 -128 -48 -242 -137 -316c34 -23 74 -41 117 -46l-24 -43c-49 8 -96 30 -135 59c-59 -36 -132 -57 -216 -57c-255 0 -395 181 -395 403c0 220 144 402 395 402c249 0 395 -182 395 -402zM789 390c0 218 -150 347 -330 347c-182 0 -330 -126 -330 -344
c0 -211 148 -353 330 -353c61 0 118 15 168 44c-24 22 -42 45 -54 65l37 30c15 -20 35 -43 59 -66c73 60 120 155 120 277z" />
    <glyph glyph-name="R" unicode="R" horiz-adv-x="612" 
d="M594 0h-82l-325 376v-376h-60v786h197c128 0 247 -54 247 -226c0 -71 -50 -224 -277 -224zM513 564c0 41 -23 170 -189 170h-137v-346h108c159 0 218 95 218 176z" />
    <glyph glyph-name="S" unicode="S" horiz-adv-x="546" 
d="M465 197c0 -107 -74 -205 -222 -205c-71 0 -145 19 -205 102l43 33c38 -40 81 -84 172 -84c68 0 150 50 150 143c0 66 -39 120 -84 145l-142 80c-77 43 -129 100 -129 199c0 115 91 189 208 189c58 0 139 -15 183 -89l-43 -27c-48 61 -96 67 -140 67
c-60 0 -147 -38 -147 -133c0 -105 71 -139 102 -156l132 -74c61 -33 122 -92 122 -190z" />
    <glyph glyph-name="T" unicode="T" horiz-adv-x="502" 
d="M502 734h-221v-734h-60v734h-221v52h502v-52z" />
    <glyph glyph-name="U" unicode="U" horiz-adv-x="827" 
d="M718 314c0 -160 -94 -324 -301 -324c-208 0 -308 154 -308 324v473h60v-434c0 -199 98 -305 248 -305s241 105 241 305v434h60v-473z" />
    <glyph glyph-name="V" unicode="V" horiz-adv-x="616" 
d="M616 786l-320 -842l-290 842h65l230 -669l251 669h64z" />
    <glyph glyph-name="W" unicode="W" horiz-adv-x="980" 
d="M957 786l-242 -848l-222 713l-225 -712l-245 847h65l179 -642l229 695l216 -693l178 640h67z" />
    <glyph glyph-name="X" unicode="X" horiz-adv-x="579" 
d="M579 0h-71l-221 351l-219 -351h-68l253 405l-239 380h73l202 -322l202 323h68l-236 -377z" />
    <glyph glyph-name="Y" unicode="Y" horiz-adv-x="580" 
d="M576 786l-256 -414v-372h-60v371l-257 414h68l222 -355l218 356h65z" />
    <glyph glyph-name="Z" unicode="Z" horiz-adv-x="660" 
d="M639 786l-489 -734h485v-52h-585l486 734h-458v52h561z" />
    <glyph glyph-name="bracketleft" unicode="[" horiz-adv-x="414" 
d="M350 -187h-234v973h231v-46h-171v-881h174v-46z" />
    <glyph glyph-name="backslash" unicode="\" horiz-adv-x="486" 
d="M411 0h-55l-281 785h56z" />
    <glyph glyph-name="bracketright" unicode="]" horiz-adv-x="414" 
d="M298 -187h-234v46h174v881h-171v46h231v-973z" />
    <glyph glyph-name="asciicircum" unicode="^" horiz-adv-x="700" 
d="M653 393h-58l-244 341l-245 -342h-58l277 401h53z" />
    <glyph glyph-name="underscore" unicode="_" horiz-adv-x="546" 
d="M546 -136h-546v54h546v-54z" />
    <glyph glyph-name="grave" unicode="`" 
d="M320 542h-56l-66 131h56z" />
    <glyph glyph-name="a" unicode="a" horiz-adv-x="540" 
d="M437 0h-54v45c-57 -45 -112 -56 -173 -56c-79 0 -162 29 -162 143c0 72 53 155 210 155c20 0 95 -3 125 -9v48c0 85 -57 106 -147 106c-53 0 -92 -11 -131 -36l-23 47c51 25 105 38 168 38c108 0 187 -32 187 -136v-345zM383 92v141c-36 6 -82 9 -137 9
c-83 0 -143 -33 -143 -115c0 -59 45 -94 123 -94c53 0 118 27 157 59z" />
    <glyph glyph-name="b" unicode="b" horiz-adv-x="609" 
d="M559 226c0 -120 -81 -237 -217 -237c-97 0 -156 47 -179 89v-78h-53v788h53v-402c21 41 79 93 181 93c124 0 215 -85 215 -253zM500 233c0 111 -54 198 -164 198c-117 0 -170 -97 -170 -204c0 -77 46 -189 175 -189c95 0 159 78 159 195z" />
    <glyph glyph-name="c" unicode="c" horiz-adv-x="504" 
d="M465 68c-55 -65 -114 -79 -184 -79c-133 0 -231 99 -231 249c0 143 90 243 232 243c62 0 130 -23 171 -77l-36 -39c-45 51 -105 65 -147 65c-94 0 -161 -75 -161 -196c0 -120 84 -195 170 -195c62 0 119 28 156 69z" />
    <glyph glyph-name="d" unicode="d" horiz-adv-x="609" 
d="M499 0h-53v84c-21 -41 -79 -93 -181 -93c-124 0 -215 85 -215 253c0 120 81 237 217 237c97 0 156 -47 179 -89v396h53v-788zM443 243c0 77 -46 189 -175 189c-95 0 -159 -78 -159 -195c0 -111 54 -198 164 -198c117 0 170 97 170 204z" />
    <glyph glyph-name="e" unicode="e" horiz-adv-x="539" 
d="M497 236h-389c6 -148 116 -198 180 -198c93 0 148 58 168 80l34 -45c-61 -56 -113 -84 -202 -84c-112 0 -238 74 -238 246c0 170 120 246 234 246c125 0 213 -68 213 -245zM437 287c-4 85 -70 146 -152 146c-72 0 -157 -41 -174 -146h326z" />
    <glyph glyph-name="f" unicode="f" horiz-adv-x="291" 
d="M261 743c-71 0 -96 1 -96 -88v-187h95v-47h-95v-421h-55v421h-78v47h78v195c0 122 65 125 151 125v-45z" />
    <glyph glyph-name="g" unicode="g" horiz-adv-x="600" 
d="M499 14c0 -174 -118 -214 -225 -214c-55 0 -133 8 -193 63l29 40c34 -36 113 -59 156 -59c108 0 180 48 180 155v85c-21 -41 -79 -93 -181 -93c-124 0 -215 85 -215 253c0 120 81 237 217 237c97 0 156 -47 179 -89v76h53v-454zM443 243c0 77 -46 189 -175 189
c-95 0 -159 -78 -159 -195c0 -111 54 -198 164 -198c117 0 170 97 170 204z" />
    <glyph glyph-name="h" unicode="h" horiz-adv-x="583" 
d="M480 0h-54v275c0 110 -43 153 -115 153c-96 0 -148 -69 -148 -162v-266h-53v787h54v-388c41 60 99 80 149 80c40 0 167 -13 167 -165v-314z" />
    <glyph glyph-name="i" unicode="i" horiz-adv-x="274" 
d="M164 578h-54v117h54v-117zM164 0h-54v468h54v-468z" />
    <glyph glyph-name="j" unicode="j" horiz-adv-x="270" 
d="M169 578h-54v117h54v-117zM169 -21c0 -80 -50 -146 -156 -146c-4 0 -12 1 -17 2v47c20 2 119 -16 119 109v477h54v-489z" />
    <glyph glyph-name="k" unicode="k" horiz-adv-x="467" 
d="M467 0h-72l-175 243l-57 -57v-186h-53v787h54v-529l211 210h72l-184 -185z" />
    <glyph glyph-name="l" unicode="l" horiz-adv-x="274" 
d="M164 0h-54v786h54v-786z" />
    <glyph glyph-name="m" unicode="m" horiz-adv-x="900" 
d="M797 0h-54v298c0 63 -25 130 -130 130c-96 0 -134 -87 -134 -151v-277h-53v288c0 90 -40 140 -120 140c-91 0 -143 -73 -143 -158v-270h-53v468h54v-68c45 66 97 79 159 79c48 0 119 -27 145 -91c30 65 96 91 162 91c91 0 167 -54 167 -158v-321z" />
    <glyph glyph-name="n" unicode="n" horiz-adv-x="583" 
d="M480 0h-54v288c0 103 -49 140 -119 140c-80 0 -144 -62 -144 -151v-277h-53v468h54v-68c47 66 112 79 145 79c68 0 171 -32 171 -158v-321z" />
    <glyph glyph-name="o" unicode="o" horiz-adv-x="582" 
d="M532 236c0 -169 -127 -247 -241 -247c-118 0 -241 80 -241 247c0 128 85 245 241 245s241 -117 241 -245zM476 236c0 137 -90 199 -184 199c-96 0 -186 -62 -186 -199c0 -122 74 -201 187 -201c107 0 183 79 183 201z" />
    <glyph glyph-name="p" unicode="p" horiz-adv-x="609" 
d="M559 226c0 -120 -81 -237 -217 -237c-97 0 -156 47 -179 89v-278h-53v668h53v-82c21 41 79 93 181 93c124 0 215 -85 215 -253zM500 233c0 111 -54 198 -164 198c-117 0 -170 -97 -170 -204c0 -77 46 -189 175 -189c95 0 159 78 159 195z" />
    <glyph glyph-name="q" unicode="q" horiz-adv-x="600" 
d="M499 -200h-53v284c-21 -41 -79 -93 -181 -93c-124 0 -215 85 -215 253c0 120 81 237 217 237c97 0 156 -47 179 -89v76h53v-668zM443 243c0 77 -46 189 -175 189c-95 0 -159 -78 -159 -195c0 -111 54 -198 164 -198c117 0 170 97 170 204z" />
    <glyph glyph-name="r" unicode="r" horiz-adv-x="395" 
d="M407 446l-28 -52c-19 19 -46 30 -80 30c-70 0 -135 -68 -135 -131v-293h-54v468h54v-75c48 69 102 86 141 86c50 0 75 -15 102 -33z" />
    <glyph glyph-name="s" unicode="s" horiz-adv-x="428" 
d="M373 120c0 -90 -66 -131 -158 -131c-53 0 -102 10 -144 38l20 48c38 -25 87 -40 124 -40c43 0 102 19 102 76c0 62 -52 77 -93 95l-49 22c-36 15 -99 45 -99 130c0 76 65 123 144 123c48 0 94 -8 133 -31l-22 -44c-30 17 -74 30 -108 30c-61 0 -93 -32 -93 -72
c0 -55 37 -74 81 -94l48 -22c51 -22 114 -45 114 -128z" />
    <glyph glyph-name="t" unicode="t" horiz-adv-x="314" 
d="M295 1c-15 -6 -35 -8 -51 -8c-56 0 -136 23 -136 155v276h-71v44h71v175h56v-175h98v-44h-98v-266c0 -112 56 -117 95 -117c12 0 31 3 36 5v-45z" />
    <glyph glyph-name="u" unicode="u" horiz-adv-x="583" 
d="M473 0h-54v72c-21 -33 -79 -83 -139 -83c-110 0 -177 57 -177 157v322h54v-296c0 -122 79 -133 127 -133c56 0 136 54 136 153v276h53v-468z" />
    <glyph glyph-name="v" unicode="v" horiz-adv-x="430" 
d="M409 468l-194 -499l-192 499h55l140 -371l140 371h51z" />
    <glyph glyph-name="w" unicode="w" horiz-adv-x="686" 
d="M663 468l-189 -507l-132 385l-130 -385l-189 507h60l132 -367l128 390l135 -390l131 367h54z" />
    <glyph glyph-name="x" unicode="x" horiz-adv-x="441" 
d="M415 0h-64l-134 202l-131 -202h-60l161 247l-146 221h66l113 -171l112 171h57l-140 -216z" />
    <glyph glyph-name="y" unicode="y" horiz-adv-x="459" 
d="M420 468l-160 -530c-31 -103 -84 -142 -150 -142c-24 0 -41 3 -61 9l15 49c16 -6 30 -10 47 -10c79 0 99 95 101 123l-172 501h59l142 -426l122 426h57z" />
    <glyph glyph-name="z" unicode="z" horiz-adv-x="458" 
d="M432 461l-299 -411h291v-50h-396l302 409h-274v52h376z" />
    <glyph glyph-name="braceleft" unicode="{" horiz-adv-x="439" 
d="M378 -199h-35c-140 0 -174 59 -174 168v169c0 68 -7 126 -86 126h-24v54h24c80 0 86 48 86 113v186c0 110 34 169 174 169h35v-47h-38c-96 0 -106 -54 -106 -119v-163c0 -80 17 -133 -107 -168c124 -45 107 -97 107 -180v-143c0 -64 10 -119 106 -119h38v-46z" />
    <glyph glyph-name="bar" unicode="|" horiz-adv-x="292" 
d="M176 -187h-60v973h60v-973z" />
    <glyph glyph-name="braceright" unicode="}" horiz-adv-x="439" 
d="M380 264h-24c-79 0 -86 -58 -86 -126v-169c0 -109 -34 -168 -174 -168h-35v46h38c96 0 106 55 106 119v143c0 83 -17 135 107 180c-124 35 -107 88 -107 168v163c0 65 -10 119 -106 119h-38v47h35c140 0 174 -59 174 -169v-186c0 -65 6 -113 86 -113h24v-54z" />
    <glyph glyph-name="asciitilde" unicode="~" horiz-adv-x="549" 
d="M509 346c-9 -64 -45 -120 -94 -120c-68 0 -221 76 -247 76s-64 2 -78 -56h-50c9 63 45 119 94 119c79 0 190 -75 247 -75c26 0 64 -3 78 56h50z" />
    <glyph glyph-name="Adieresis" unicode="&#xc4;" horiz-adv-x="673" 
d="M457 851h-50v60h50v-60zM266 851h-50v60h50v-60zM628 0h-61l-90 265h-281l-90 -265h-61l289 822zM455 315l-125 349l-117 -349h242z" />
    <glyph glyph-name="Aring" unicode="&#xc5;" horiz-adv-x="673" 
d="M410 931c0 -47 -34 -81 -79 -81s-79 34 -79 81c0 48 34 82 79 82c46 0 79 -34 79 -82zM628 0h-61l-90 265h-281l-90 -265h-61l289 822zM390 931c0 31 -22 64 -59 64s-59 -34 -59 -64c0 -36 26 -63 59 -63c28 0 59 27 59 63zM455 315l-125 349l-117 -349h242z" />
    <glyph glyph-name="Ccedilla" unicode="&#xc7;" horiz-adv-x="777" 
d="M744 100c-74 -83 -185 -109 -264 -113l-37 -54c90 22 156 -19 156 -82s-56 -96 -112 -97c-50 0 -101 11 -147 45l25 39c29 -23 77 -40 113 -39c35 0 66 22 66 53c0 29 -38 44 -71 44c-25 0 -48 -2 -59 -11l-34 33l43 70c-205 17 -359 165 -359 406c0 214 166 398 391 398
c88 0 185 -23 252 -81l-39 -40c-59 42 -121 68 -212 68c-175 0 -327 -156 -327 -345c0 -198 141 -354 333 -354c86 0 171 35 244 102z" />
    <glyph glyph-name="Eacute" unicode="&#xc9;" horiz-adv-x="577" 
d="M437 1023l-99 -183h-53l99 183h53zM547 0h-420v786h394v-52h-334v-304h321v-52h-321v-326h360v-52z" />
    <glyph glyph-name="Ntilde" unicode="&#xd1;" horiz-adv-x="851" 
d="M561 906c-10 -44 -41 -66 -67 -66c-40 0 -91 25 -120 25c-11 0 -22 2 -29 -24h-49c8 34 29 66 63 66c45 0 87 -27 129 -27c10 0 20 7 23 26h50zM724 -31l-537 681v-650h-60v821l537 -681v660h60v-831z" />
    <glyph glyph-name="Odieresis" unicode="&#xd6;" horiz-adv-x="918" 
d="M582 841h-50v60h50v-60zM391 841h-50v60h50v-60zM854 390c0 -222 -146 -403 -395 -403c-255 0 -395 181 -395 403c0 220 144 402 395 402c249 0 395 -182 395 -402zM789 390c0 218 -150 347 -330 347c-182 0 -330 -126 -330 -344c0 -211 148 -353 330 -353
c180 0 330 133 330 350z" />
    <glyph glyph-name="Udieresis" unicode="&#xdc;" horiz-adv-x="827" 
d="M538 727h-50v60h50v-60zM347 727h-50v60h50v-60zM718 314c0 -160 -94 -324 -301 -324c-208 0 -308 154 -308 324v473h60v-434c0 -199 98 -305 248 -305s241 105 241 305v434h60v-473z" />
    <glyph glyph-name="aacute" unicode="&#xe1;" horiz-adv-x="540" 
d="M371 723l-99 -183h-53l99 183h53zM437 0h-54v45c-57 -45 -112 -56 -173 -56c-79 0 -162 29 -162 143c0 72 53 155 210 155c20 0 95 -3 125 -9v48c0 85 -57 106 -147 106c-53 0 -92 -11 -131 -36l-23 47c51 25 105 38 168 38c108 0 187 -32 187 -136v-345zM383 92v141
c-36 6 -82 9 -137 9c-83 0 -143 -33 -143 -115c0 -59 45 -94 123 -94c53 0 118 27 157 59z" />
    <glyph glyph-name="agrave" unicode="&#xe0;" horiz-adv-x="540" 
d="M296 542h-56l-66 131h56zM437 0h-54v45c-57 -45 -112 -56 -173 -56c-79 0 -162 29 -162 143c0 72 53 155 210 155c20 0 95 -3 125 -9v48c0 85 -57 106 -147 106c-53 0 -92 -11 -131 -36l-23 47c51 25 105 38 168 38c108 0 187 -32 187 -136v-345zM383 92v141
c-36 6 -82 9 -137 9c-83 0 -143 -33 -143 -115c0 -59 45 -94 123 -94c53 0 118 27 157 59z" />
    <glyph glyph-name="acircumflex" unicode="&#xe2;" horiz-adv-x="540" 
d="M360 541h-48l-65 101l-64 -101h-48l80 125h64zM437 0h-54v45c-57 -45 -112 -56 -173 -56c-79 0 -162 29 -162 143c0 72 53 155 210 155c20 0 95 -3 125 -9v48c0 85 -57 106 -147 106c-53 0 -92 -11 -131 -36l-23 47c51 25 105 38 168 38c108 0 187 -32 187 -136v-345z
M383 92v141c-36 6 -82 9 -137 9c-83 0 -143 -33 -143 -115c0 -59 45 -94 123 -94c53 0 118 27 157 59z" />
    <glyph glyph-name="adieresis" unicode="&#xe4;" horiz-adv-x="540" 
d="M374 541h-50v60h50v-60zM183 541h-50v60h50v-60zM437 0h-54v45c-57 -45 -112 -56 -173 -56c-79 0 -162 29 -162 143c0 72 53 155 210 155c20 0 95 -3 125 -9v48c0 85 -57 106 -147 106c-53 0 -92 -11 -131 -36l-23 47c51 25 105 38 168 38c108 0 187 -32 187 -136v-345z
M383 92v141c-36 6 -82 9 -137 9c-83 0 -143 -33 -143 -115c0 -59 45 -94 123 -94c53 0 118 27 157 59z" />
    <glyph glyph-name="atilde" unicode="&#xe3;" horiz-adv-x="540" 
d="M375 606c-10 -44 -41 -66 -67 -66c-40 0 -91 25 -120 25c-11 0 -22 2 -29 -24h-49c8 34 29 66 63 66c45 0 87 -27 129 -27c10 0 20 7 23 26h50zM437 0h-54v45c-57 -45 -112 -56 -173 -56c-79 0 -162 29 -162 143c0 72 53 155 210 155c20 0 95 -3 125 -9v48
c0 85 -57 106 -147 106c-53 0 -92 -11 -131 -36l-23 47c51 25 105 38 168 38c108 0 187 -32 187 -136v-345zM383 92v141c-36 6 -82 9 -137 9c-83 0 -143 -33 -143 -115c0 -59 45 -94 123 -94c53 0 118 27 157 59z" />
    <glyph glyph-name="aring" unicode="&#xe5;" horiz-adv-x="540" 
d="M327 617c0 -47 -34 -81 -79 -81s-79 34 -79 81c0 48 34 82 79 82c46 0 79 -34 79 -82zM437 0h-54v45c-57 -45 -112 -56 -173 -56c-79 0 -162 29 -162 143c0 72 53 155 210 155c20 0 95 -3 125 -9v48c0 85 -57 106 -147 106c-53 0 -92 -11 -131 -36l-23 47
c51 25 105 38 168 38c108 0 187 -32 187 -136v-345zM307 617c0 31 -22 64 -59 64s-59 -34 -59 -64c0 -36 26 -63 59 -63c28 0 59 27 59 63zM383 92v141c-36 6 -82 9 -137 9c-83 0 -143 -33 -143 -115c0 -59 45 -94 123 -94c53 0 118 27 157 59z" />
    <glyph glyph-name="ccedilla" unicode="&#xe7;" horiz-adv-x="504" 
d="M465 68c-54 -64 -113 -79 -181 -79l-24 -48c77 19 129 -15 129 -65c0 -53 -39 -73 -87 -74c-42 0 -59 1 -113 27l22 34c27 -16 52 -28 81 -28c34 0 56 15 56 42c0 25 -29 33 -57 33c-21 0 -42 -2 -52 -8l-24 30l30 59c-114 17 -195 111 -195 247c0 143 90 243 232 243
c62 0 130 -23 171 -77l-36 -39c-45 51 -105 65 -147 65c-94 0 -161 -75 -161 -196c0 -120 84 -195 170 -195c62 0 119 28 156 69z" />
    <glyph glyph-name="eacute" unicode="&#xe9;" horiz-adv-x="539" 
d="M391 723l-99 -183h-53l99 183h53zM497 236h-389c6 -148 116 -198 180 -198c93 0 148 58 168 80l34 -45c-61 -56 -113 -84 -202 -84c-112 0 -238 74 -238 246c0 170 120 246 234 246c125 0 213 -68 213 -245zM437 287c-4 85 -70 146 -152 146c-72 0 -157 -41 -174 -146
h326z" />
    <glyph glyph-name="egrave" unicode="&#xe8;" horiz-adv-x="539" 
d="M334 542h-56l-66 131h56zM497 236h-389c6 -148 116 -198 180 -198c93 0 148 58 168 80l34 -45c-61 -56 -113 -84 -202 -84c-112 0 -238 74 -238 246c0 170 120 246 234 246c125 0 213 -68 213 -245zM437 287c-4 85 -70 146 -152 146c-72 0 -157 -41 -174 -146h326z" />
    <glyph glyph-name="ecircumflex" unicode="&#xea;" horiz-adv-x="539" 
d="M395 541h-48l-65 101l-64 -101h-48l80 125h64zM497 236h-389c6 -148 116 -198 180 -198c93 0 148 58 168 80l34 -45c-61 -56 -113 -84 -202 -84c-112 0 -238 74 -238 246c0 170 120 246 234 246c125 0 213 -68 213 -245zM437 287c-4 85 -70 146 -152 146
c-72 0 -157 -41 -174 -146h326z" />
    <glyph glyph-name="edieresis" unicode="&#xeb;" horiz-adv-x="539" 
d="M405 541h-50v60h50v-60zM214 541h-50v60h50v-60zM497 236h-389c6 -148 116 -198 180 -198c93 0 148 58 168 80l34 -45c-61 -56 -113 -84 -202 -84c-112 0 -238 74 -238 246c0 170 120 246 234 246c125 0 213 -68 213 -245zM437 287c-4 85 -70 146 -152 146
c-72 0 -157 -41 -174 -146h326z" />
    <glyph glyph-name="iacute" unicode="&#xed;" horiz-adv-x="274" 
d="M257 723l-99 -183h-53l99 183h53zM152 0h-44v468h44v-468z" />
    <glyph glyph-name="igrave" unicode="&#xec;" horiz-adv-x="274" 
d="M176 542h-56l-66 131h56zM152 0h-44v468h44v-468z" />
    <glyph glyph-name="icircumflex" unicode="&#xee;" horiz-adv-x="274" 
d="M242 541h-48l-65 101l-64 -101h-48l80 125h64zM152 0h-44v468h44v-468z" />
    <glyph glyph-name="idieresis" unicode="&#xef;" horiz-adv-x="274" 
d="M248 541h-50v60h50v-60zM57 541h-50v60h50v-60zM152 0h-44v468h44v-468z" />
    <glyph glyph-name="ntilde" unicode="&#xf1;" horiz-adv-x="583" 
d="M435 606c-10 -44 -41 -66 -67 -66c-40 0 -91 25 -120 25c-11 0 -22 2 -29 -24h-49c8 34 29 66 63 66c45 0 87 -27 129 -27c10 0 20 7 23 26h50zM480 0h-54v288c0 103 -49 140 -119 140c-80 0 -144 -62 -144 -151v-277h-53v468h54v-68c47 66 112 79 145 79
c68 0 171 -32 171 -158v-321z" />
    <glyph glyph-name="oacute" unicode="&#xf3;" horiz-adv-x="582" 
d="M411 723l-99 -183h-53l99 183h53zM532 236c0 -169 -127 -247 -241 -247c-118 0 -241 80 -241 247c0 128 85 245 241 245s241 -117 241 -245zM476 236c0 137 -90 199 -184 199c-96 0 -186 -62 -186 -199c0 -122 74 -201 187 -201c107 0 183 79 183 201z" />
    <glyph glyph-name="ograve" unicode="&#xf2;" horiz-adv-x="582" 
d="M336 542h-56l-66 131h56zM532 236c0 -169 -127 -247 -241 -247c-118 0 -241 80 -241 247c0 128 85 245 241 245s241 -117 241 -245zM476 236c0 137 -90 199 -184 199c-96 0 -186 -62 -186 -199c0 -122 74 -201 187 -201c107 0 183 79 183 201z" />
    <glyph glyph-name="ocircumflex" unicode="&#xf4;" horiz-adv-x="582" 
d="M400 541h-48l-65 101l-64 -101h-48l80 125h64zM532 236c0 -169 -127 -247 -241 -247c-118 0 -241 80 -241 247c0 128 85 245 241 245s241 -117 241 -245zM476 236c0 137 -90 199 -184 199c-96 0 -186 -62 -186 -199c0 -122 74 -201 187 -201c107 0 183 79 183 201z" />
    <glyph glyph-name="odieresis" unicode="&#xf6;" horiz-adv-x="582" 
d="M414 541h-50v60h50v-60zM223 541h-50v60h50v-60zM532 236c0 -169 -127 -247 -241 -247c-118 0 -241 80 -241 247c0 128 85 245 241 245s241 -117 241 -245zM476 236c0 137 -90 199 -184 199c-96 0 -186 -62 -186 -199c0 -122 74 -201 187 -201c107 0 183 79 183 201z" />
    <glyph glyph-name="otilde" unicode="&#xf5;" horiz-adv-x="582" 
d="M433 606c-10 -44 -41 -66 -67 -66c-40 0 -91 25 -120 25c-11 0 -22 2 -29 -24h-49c8 34 29 66 63 66c45 0 87 -27 129 -27c10 0 20 7 23 26h50zM532 236c0 -169 -127 -247 -241 -247c-118 0 -241 80 -241 247c0 128 85 245 241 245s241 -117 241 -245zM476 236
c0 137 -90 199 -184 199c-96 0 -186 -62 -186 -199c0 -122 74 -201 187 -201c107 0 183 79 183 201z" />
    <glyph glyph-name="uacute" unicode="&#xfa;" horiz-adv-x="583" 
d="M391 723l-99 -183h-53l99 183h53zM473 0h-54v72c-21 -33 -79 -83 -139 -83c-110 0 -177 57 -177 157v322h54v-296c0 -122 79 -133 127 -133c56 0 136 54 136 153v276h53v-468z" />
    <glyph glyph-name="ugrave" unicode="&#xf9;" horiz-adv-x="583" 
d="M342 542h-56l-66 131h56zM473 0h-54v72c-21 -33 -79 -83 -139 -83c-110 0 -177 57 -177 157v322h54v-296c0 -122 79 -133 127 -133c56 0 136 54 136 153v276h53v-468z" />
    <glyph glyph-name="ucircumflex" unicode="&#xfb;" horiz-adv-x="583" 
d="M400 541h-48l-65 101l-64 -101h-48l80 125h64zM473 0h-54v72c-21 -33 -79 -83 -139 -83c-110 0 -177 57 -177 157v322h54v-296c0 -122 79 -133 127 -133c56 0 136 54 136 153v276h53v-468z" />
    <glyph glyph-name="udieresis" unicode="&#xfc;" horiz-adv-x="583" 
d="M412 541h-50v60h50v-60zM221 541h-50v60h50v-60zM473 0h-54v72c-21 -33 -79 -83 -139 -83c-110 0 -177 57 -177 157v322h54v-296c0 -122 79 -133 127 -133c56 0 136 54 136 153v276h53v-468z" />
    <glyph glyph-name="dagger" unicode="&#x2020;" horiz-adv-x="510" 
d="M489 495h-203v-682h-61v682h-204v58h204v233h61v-233h203v-58z" />
    <glyph glyph-name="degree" unicode="&#xb0;" horiz-adv-x="310" 
d="M276 580c0 -66 -52 -115 -123 -115c-78 0 -119 49 -119 115c0 63 54 115 122 115c71 0 120 -48 120 -115zM226 580c0 41 -29 72 -71 72s-72 -32 -72 -72c0 -45 30 -73 72 -73c43 0 71 31 71 73z" />
    <glyph glyph-name="cent" unicode="&#xa2;" horiz-adv-x="590" 
d="M560 94c-44 -44 -87 -82 -165 -93v-96h-34v93h-15c-11 0 -22 1 -34 2v-95h-34v102c-97 25 -206 104 -206 276c0 106 68 243 206 274v97h34v-92c8 1 16 1 25 1c8 0 16 0 24 -1v92h34v-96c87 -15 140 -62 155 -82l-40 -36c-7 7 -38 47 -115 60v-446c65 14 103 51 126 73z
M278 61v437c-116 -32 -148 -153 -148 -215c0 -117 65 -194 148 -222zM361 50v454c-8 1 -15 1 -23 1c-9 0 -18 0 -26 -1v-451c12 -2 24 -3 36 -3h13z" />
    <glyph glyph-name="sterling" unicode="&#xa3;" horiz-adv-x="637" 
d="M615 151c0 -95 -64 -159 -170 -159c-62 0 -111 18 -176 70c-42 -70 -76 -70 -106 -70c-62 0 -97 45 -97 80c0 55 33 94 91 94c41 0 59 -10 91 -33c25 40 38 69 38 103c0 4 0 9 -1 14h-156v34h149c-5 18 -12 33 -25 49h-124v34h95l-48 56c-49 57 -89 95 -89 188
c0 119 125 185 230 185c160 0 226 -100 226 -178h-57c-11 73 -67 125 -171 125c-77 0 -170 -59 -170 -130c0 -79 53 -119 85 -159c0 0 68 -84 70 -87h188v-34h-165c9 -17 15 -33 18 -49h147v-34h-143v-9c0 -48 -27 -101 -48 -134c64 -51 109 -62 144 -62c38 0 105 7 111 106
h63zM222 94c-17 10 -38 25 -63 25c-10 0 -40 -6 -40 -41c0 -22 30 -38 43 -38c24 0 38 20 60 54z" />
    <glyph glyph-name="section" unicode="&#xa7;" horiz-adv-x="664" 
d="M604 313c0 -112 -138 -154 -189 -174c65 -44 104 -90 104 -136c0 -117 -111 -162 -215 -162c-73 0 -111 17 -172 41l22 43c41 -15 88 -34 150 -34c60 0 160 30 160 103c0 57 -73 103 -113 117l-115 41c-84 31 -173 67 -173 181c0 97 101 161 185 189
c-59 31 -103 81 -103 130c0 93 74 149 215 149c71 0 144 -25 172 -35l-16 -45c-40 18 -106 38 -156 38c-88 0 -164 -43 -164 -107c0 -44 67 -84 117 -102l115 -42c87 -33 176 -77 176 -195zM547 309c0 54 -14 103 -123 142l-119 43c-63 -3 -188 -99 -188 -161
c0 -42 22 -95 122 -130l104 -36c57 3 204 66 204 142z" />
    <glyph glyph-name="bullet" unicode="&#x2022;" 
d="M421 310l-168 -198l-174 204l173 198z" />
    <glyph glyph-name="paragraph" unicode="&#xb6;" horiz-adv-x="813" 
d="M770 723h-294v-663h293v-62h-300c-220 0 -405 167 -405 392c0 227 187 395 412 395h294v-62zM668 150h-64v479h64v-479z" />
    <glyph glyph-name="germandbls" unicode="&#xdf;" horiz-adv-x="604" 
d="M516 214c0 -177 -102 -230 -204 -230c-38 0 -64 7 -97 20v46c26 -11 66 -19 97 -19c99 0 148 72 148 179c0 156 -102 208 -231 245v50h37c77 0 138 50 138 132c0 41 -22 106 -116 106c-57 0 -124 -23 -124 -170v-573h-54v591c0 157 98 198 179 198
c102 0 170 -56 170 -150c0 -56 -29 -141 -140 -168c138 -33 197 -146 197 -257z" />
    <glyph glyph-name="registered" unicode="&#xae;" horiz-adv-x="604" 
d="M567 527c0 -146 -119 -265 -265 -265s-265 119 -265 265s119 265 265 265s265 -119 265 -265zM520 527c0 120 -98 219 -218 219s-216 -99 -216 -219s96 -219 216 -219s218 99 218 219zM423 381h-61l-108 138v-138h-45v299h104c51 0 93 -26 93 -85c0 -46 -31 -88 -88 -88z
M358 598c0 20 -1 45 -66 45l-38 -2v-104l40 -2c60 -3 64 38 64 63z" />
    <glyph glyph-name="copyright" unicode="&#xa9;" horiz-adv-x="604" 
d="M567 527c0 -146 -119 -265 -265 -265s-265 119 -265 265s119 265 265 265s265 -119 265 -265zM520 527c0 120 -98 219 -218 219s-216 -99 -216 -219s96 -219 216 -219s218 99 218 219zM427 428c-32 -59 -88 -68 -121 -68c-93 0 -148 68 -148 165c0 94 61 162 147 162
c41 0 75 -9 110 -45l-30 -36c-26 27 -54 34 -82 34c-57 0 -98 -45 -98 -115c0 -64 42 -119 105 -119c17 0 49 4 81 50z" />
    <glyph glyph-name="trademark" unicode="&#x2122;" horiz-adv-x="840" 
d="M745 393h-40v325l-132 -197h-21l-136 198v-326h-39v393h51l137 -214l128 214h52v-393zM284 748h-103v-355h-43v355h-103v38h249v-38z" />
    <glyph glyph-name="acute" unicode="&#xb4;" 
d="M339 723l-99 -183h-53l99 183h53z" />
    <glyph glyph-name="dieresis" unicode="&#xa8;" 
d="M378 541h-50v60h50v-60zM187 541h-50v60h50v-60z" />
    <glyph glyph-name="notequal" unicode="&#x2260;" horiz-adv-x="549" 
d="M464 129h-202l-42 -107h-49l42 107h-128v55h149l30 82h-179v55h198l37 104h49l-36 -104h131v-55h-151l-30 -82h181v-55z" />
    <glyph glyph-name="AE" unicode="&#xc6;" horiz-adv-x="993" 
d="M963 0h-420v263h-303l-167 -263h-73l516 786h421v-50h-334v-307h321v-50h-321v-329h360v-50zM543 313v420l-274 -420h274z" />
    <glyph glyph-name="Oslash" unicode="&#xd8;" horiz-adv-x="918" 
d="M854 390c0 -222 -146 -403 -395 -403c-76 0 -142 16 -198 45l-64 -96l-40 24l65 96c-103 72 -158 196 -158 334c0 220 144 402 395 402c87 0 161 -22 221 -61l61 90l39 -22l-64 -94c89 -74 138 -188 138 -315zM647 682c-54 36 -119 55 -188 55
c-182 0 -330 -126 -330 -344c0 -123 50 -223 129 -284zM789 390c0 114 -41 204 -107 264l-386 -571c48 -28 104 -43 163 -43c180 0 330 133 330 350z" />
    <glyph glyph-name="infinity" unicode="&#x221e;" horiz-adv-x="713" 
d="M687 269c0 -83 -59 -145 -135 -145c-66 0 -105 26 -195 107c-76 -73 -122 -106 -203 -106c-76 0 -127 49 -127 134c0 83 59 145 135 145c66 0 105 -26 195 -107c76 71 122 106 203 106c76 0 127 -49 127 -134zM633 268c0 62 -43 87 -91 87c-49 0 -86 -27 -152 -91
c79 -67 117 -88 156 -88c62 0 87 38 87 92zM324 264c-79 67 -117 88 -156 88c-62 0 -87 -38 -87 -92c0 -62 43 -87 91 -87c49 0 86 27 152 91z" />
    <glyph glyph-name="plusminus" unicode="&#xb1;" horiz-adv-x="549" 
d="M467 263h-167v-166h-55v166h-165v55h165v166h55v-166h167v-55zM470 0h-391v55h391v-55z" />
    <glyph glyph-name="lessequal" unicode="&#x2264;" horiz-adv-x="549" 
d="M455 101l-391 163v56l391 174v-57l-321 -143l321 -130v-63zM456 0h-391v55h391v-55z" />
    <glyph glyph-name="greaterequal" unicode="&#x2265;" horiz-adv-x="549" 
d="M482 265l-391 -164v57l321 133l-321 140v63l391 -173v-56zM484 0h-391v55h391v-55z" />
    <glyph glyph-name="yen" unicode="&#xa5;" horiz-adv-x="580" 
d="M542 786l-237 -412v-79h215v-35h-215v-84h215v-36h-215v-140h-60v140h-200v36h200v84h-200v35h200v78l-226 413h71l188 -370l200 370h64z" />
    <glyph glyph-name="mu" unicode="&#xb5;" horiz-adv-x="541" 
d="M531 68c-18 -75 -68 -89 -110 -89c-50 0 -64 41 -73 76c-17 -17 -76 -65 -146 -65c-39 0 -66 10 -84 30v-28c0 -53 28 -100 28 -134c0 -45 -21 -61 -44 -61s-40 17 -40 61c0 35 24 81 24 134v327c0 72 -7 84 -53 84h-7v22h12c23 0 35 -2 58 -2c20 0 30 2 50 2h13v-286
c0 -60 24 -89 90 -89c32 0 70 10 99 28v241c0 72 -6 84 -52 84h-9v22h14c22 0 34 -2 56 -2c20 0 30 2 50 2h14v-289c0 -81 13 -98 42 -98c30 0 35 12 50 30h18z" />
    <glyph glyph-name="partialdiff" unicode="&#x2202;" horiz-adv-x="494" 
d="M462 393c0 -204 -77 -408 -255 -408c-96 0 -166 56 -166 190c0 188 100 263 200 263c73 0 102 -21 141 -63c2 24 3 37 3 75c0 133 -45 208 -169 208c-71 0 -90 -18 -112 -31l-39 50c30 15 74 28 134 28c173 0 263 -143 263 -312zM377 335c-21 23 -51 58 -112 58
c-95 0 -141 -86 -141 -218c0 -121 33 -158 92 -158c107 0 148 151 161 318z" />
    <glyph glyph-name="summation" unicode="&#x2211;" horiz-adv-x="713" 
d="M695 122c-25 -102 -30 -122 -43 -224c-26 4 -52 11 -77 11h-503c-20 0 -38 -3 -58 -3l349 398l-347 454c34 -2 70 -7 104 -7h497l6 -159h-20c-20 65 -25 114 -153 114h-263l273 -358l-294 -339h371c66 0 100 24 135 113h23z" />
    <glyph glyph-name="product" unicode="&#x220f;" horiz-adv-x="823" 
d="M803 -101h-306v23c58 0 96 11 96 81v693h-358v-693c0 -70 38 -81 97 -81v-23h-307v23c60 0 97 11 97 81v626c0 93 -67 99 -95 99v23h773v-23c-28 0 -94 -6 -94 -99v-626c0 -70 38 -81 97 -81v-23z" />
    <glyph glyph-name="pi" unicode="&#x3c0;" horiz-adv-x="549" 
d="M506 136c0 -90 -50 -147 -104 -147c-48 0 -74 41 -74 104c0 22 18 257 18 257h-131l-22 -174c-15 -121 -22 -189 -74 -189c-35 0 -52 18 -52 43c0 53 65 53 79 146l27 174h-54c-25 0 -61 -15 -77 -56h-15c6 19 30 132 134 132h338v-76h-111c-7 -83 -12 -135 -12 -174
c0 -56 7 -106 60 -106c27 0 52 34 52 66h18z" />
    <glyph glyph-name="integral" unicode="&#x222b;" horiz-adv-x="274" 
d="M291 822c0 -26 -22 -46 -52 -46c-25 0 -37 26 -50 26s-18 -15 -18 -24c-2 -37 19 -194 19 -330l-1 -216c-1 -157 -20 -249 -38 -295c-17 -44 -46 -84 -93 -84c-37 0 -58 25 -58 49c0 20 13 50 46 50c41 0 36 -24 59 -24c11 0 23 46 21 106c-2 74 -7 148 -6 314v144
c0 159 5 239 26 310c9 30 41 74 83 74c39 0 62 -17 62 -54z" />
    <glyph glyph-name="ordfeminine" unicode="&#xaa;" horiz-adv-x="336" 
d="M278 498l-37 2l-1 23c-34 -25 -65 -32 -101 -32c-49 0 -100 19 -100 89c0 44 32 95 128 95c12 0 54 -2 73 -5v27c0 49 -34 60 -86 60c-31 0 -56 -4 -79 -19l-15 30c30 15 65 24 103 24c66 0 115 -20 115 -84v-210zM240 557v82c-21 3 -48 4 -80 4c-48 0 -83 -19 -83 -66
c0 -34 26 -54 71 -54c31 0 70 15 92 34z" />
    <glyph glyph-name="ordmasculine" unicode="&#xba;" horiz-adv-x="411" 
d="M353 643c0 -104 -79 -152 -148 -152c-72 0 -147 49 -147 152c0 77 51 149 147 149s148 -72 148 -149zM314 643c0 80 -53 116 -108 116c-57 0 -109 -36 -109 -116c0 -72 42 -119 109 -119c63 0 108 47 108 119z" />
    <glyph glyph-name="Omega" unicode="&#x2126;" horiz-adv-x="768" 
d="M736 0h-295l16 140c65 25 152 93 152 264c0 142 -68 267 -224 267c-158 0 -224 -117 -224 -267c0 -173 89 -243 152 -264l16 -140h-295v150h25c12 -49 24 -61 66 -61h148l-2 28c-145 33 -214 168 -214 287c0 183 138 299 328 299c198 0 328 -115 328 -299
c0 -119 -58 -254 -214 -287l-3 -28h149c42 0 54 12 66 61h25v-150z" />
    <glyph glyph-name="ae" unicode="&#xe6;" horiz-adv-x="887" 
d="M827 234h-386c-9 -127 89 -195 177 -195c83 0 127 34 168 77l34 -45c-61 -56 -113 -84 -202 -84c-86 0 -163 43 -204 101c-37 -41 -87 -99 -198 -99c-115 0 -168 56 -168 133c0 86 60 160 226 160h108v46c0 104 -108 104 -128 104c-76 0 -108 -15 -151 -39l-22 49
c50 24 118 38 173 38c77 0 156 -14 176 -96c36 57 107 95 184 95c122 0 213 -68 213 -245zM767 282c0 88 -78 148 -152 148c-58 0 -156 -39 -172 -148h324zM382 132v104h-100c-100 0 -178 -32 -178 -109c0 -58 33 -93 108 -93c56 0 129 25 170 98z" />
    <glyph glyph-name="oslash" unicode="&#xf8;" horiz-adv-x="582" 
d="M532 236c0 -169 -127 -247 -241 -247c-43 0 -86 11 -124 32l-56 -85l-32 24l55 83c-50 40 -84 105 -84 193c0 128 85 245 241 245c44 0 83 -9 115 -26l69 104l31 -22s-39 -60 -67 -102c61 -46 93 -120 93 -199zM380 415c-27 14 -57 20 -88 20c-96 0 -186 -62 -186 -199
c0 -64 20 -116 56 -151zM476 236c0 73 -26 125 -64 157l-219 -332c28 -17 62 -26 100 -26c107 0 183 79 183 201z" />
    <glyph glyph-name="questiondown" unicode="&#xbf;" horiz-adv-x="443" 
d="M277 517h-62v82h62v-82zM413 -64c-2 -63 -85 -124 -182 -124c-64 0 -177 27 -177 156c0 78 58 157 85 194c42 55 75 146 75 240h63c0 -78 -14 -128 -38 -183c-32 -74 -119 -182 -119 -248c0 -82 59 -105 121 -105c32 0 95 9 117 82z" />
    <glyph glyph-name="exclamdown" unicode="&#xa1;" horiz-adv-x="280" 
d="M176 517h-62v82h62v-82zM171 -187h-62v308l20 280h24l18 -279v-309z" />
    <glyph glyph-name="logicalnot" unicode="&#xac;" horiz-adv-x="549" 
d="M468 194h-58v187h-330v56h388v-243z" />
    <glyph glyph-name="radical" unicode="&#x221a;" horiz-adv-x="549" 
d="M515 912l-150 -950l-243 502l-96 -47l-16 33l146 72l197 -403l127 798z" />
    <glyph glyph-name="florin" unicode="&#x192;" horiz-adv-x="495" 
d="M560 787l-22 -44c-98 13 -131 4 -172 -151l-42 -160h146l-11 -44h-146l-100 -395c-31 -121 -80 -161 -159 -161c-39 0 -59 6 -80 11l18 50c19 -5 41 -8 74 -8c41 0 71 37 86 95l104 408h-130l11 44h130l50 195c32 123 80 166 194 166c9 0 29 -2 49 -6z" />
    <glyph glyph-name="approxequal" unicode="&#x2248;" horiz-adv-x="549" 
d="M479 310c-25 -47 -72 -72 -112 -72c-12 0 -23 2 -33 5l-120 39c-13 3 -25 5 -34 6c-52 1 -72 -42 -81 -54l-36 37c33 48 73 71 117 71c14 0 27 -1 42 -6l121 -38c7 -2 15 -2 24 -2c19 0 59 10 82 48zM479 180c-25 -47 -72 -71 -112 -71c-12 0 -23 1 -33 4l-120 39
c-13 3 -25 5 -34 6c-52 1 -72 -42 -81 -54l-36 37c33 48 73 71 117 71c14 0 27 -1 42 -6l121 -38c7 -1 15 -2 24 -2c19 0 59 10 82 48z" />
    <glyph glyph-name="Delta" unicode="&#x2206;" horiz-adv-x="612" 
d="M608 0h-602l320 688zM484 49l-194 468l-218 -468h412z" />
    <glyph glyph-name="guillemotleft" unicode="&#xab;" horiz-adv-x="490" 
d="M425 56l-152 151v67l152 151v-75l-111 -110l111 -110v-74zM209 56l-152 151v67l152 151v-75l-111 -110l111 -110v-74z" />
    <glyph glyph-name="guillemotright" unicode="&#xbb;" horiz-adv-x="490" 
d="M433 206l-152 -151v75l111 110l-111 110v74l152 -151v-67zM217 206l-152 -151v75l111 110l-111 110v74l152 -151v-67z" />
    <glyph glyph-name="ellipsis" unicode="&#x2026;" horiz-adv-x="1000" 
d="M834 0h-62v82h62v-82zM531 0h-62v82h62v-82zM228 0h-62v82h62v-82z" />
    <glyph glyph-name="nbspace" unicode="&#xa0;" horiz-adv-x="200" 
 />
    <glyph glyph-name="Agrave" unicode="&#xc0;" horiz-adv-x="673" 
d="M377 851h-56l-66 131h56zM628 0h-61l-90 265h-281l-90 -265h-61l289 822zM455 315l-125 349l-117 -349h242z" />
    <glyph glyph-name="Atilde" unicode="&#xc3;" horiz-adv-x="673" 
d="M472 916c-10 -44 -41 -66 -67 -66c-40 0 -91 25 -120 25c-11 0 -22 2 -29 -24h-49c8 34 29 66 63 66c45 0 87 -27 129 -27c10 0 20 7 23 26h50zM628 0h-61l-90 265h-281l-90 -265h-61l289 822zM455 315l-125 349l-117 -349h242z" />
    <glyph glyph-name="Otilde" unicode="&#xd5;" horiz-adv-x="918" 
d="M604 906c-10 -44 -41 -66 -67 -66c-40 0 -91 25 -120 25c-11 0 -22 2 -29 -24h-49c8 34 29 66 63 66c45 0 87 -27 129 -27c10 0 20 7 23 26h50zM854 390c0 -222 -146 -403 -395 -403c-255 0 -395 181 -395 403c0 220 144 402 395 402c249 0 395 -182 395 -402zM789 390
c0 218 -150 347 -330 347c-182 0 -330 -126 -330 -344c0 -211 148 -353 330 -353c180 0 330 133 330 350z" />
    <glyph glyph-name="OE" unicode="&#x152;" horiz-adv-x="1222" 
d="M1192 0h-420v152c-65 -100 -174 -165 -312 -165c-226 0 -396 173 -396 403c0 204 143 402 383 402c141 0 257 -63 325 -166v160h394v-50h-334v-307h321v-50h-321v-329h360v-50zM773 390c0 218 -138 343 -326 343c-178 0 -322 -163 -322 -343c0 -211 179 -343 335 -343
c173 0 313 136 313 343z" />
    <glyph glyph-name="oe" unicode="&#x153;" horiz-adv-x="945" 
d="M903 234h-389c6 -148 116 -193 180 -193c83 0 148 53 168 75l34 -45c-61 -56 -113 -84 -202 -84c-76 0 -165 38 -210 122c-37 -77 -113 -122 -212 -122c-124 0 -240 78 -240 247c0 122 72 245 240 245c104 0 175 -48 211 -121c42 83 126 121 207 121
c122 0 213 -68 213 -245zM843 285c0 88 -78 143 -152 143c-64 0 -157 -38 -174 -143h326zM457 234c0 137 -103 194 -185 194c-81 0 -185 -57 -185 -194c0 -122 96 -195 186 -195c83 0 184 64 184 195z" />
    <glyph glyph-name="endash" unicode="&#x2013;" horiz-adv-x="497" 
d="M467 224h-437v54h437v-54z" />
    <glyph glyph-name="emdash" unicode="&#x2014;" horiz-adv-x="997" 
d="M967 224h-937v54h937v-54z" />
    <glyph glyph-name="quotedblleft" unicode="&#x201c;" horiz-adv-x="410" 
d="M328 788c-17 -52 -25 -85 -25 -136v-80h-62v43c0 102 17 129 48 173h39zM168 788c-17 -52 -25 -85 -25 -136v-80h-62v43c0 102 17 129 48 173h39z" />
    <glyph glyph-name="quotedblright" unicode="&#x201d;" horiz-adv-x="410" 
d="M329 745c0 -102 -17 -129 -48 -173h-39c17 52 25 85 25 136v80h62v-43zM169 745c0 -102 -17 -129 -48 -173h-39c17 52 25 85 25 136v80h62v-43z" />
    <glyph glyph-name="quoteleft" unicode="&#x2018;" horiz-adv-x="250" 
d="M168 788c-17 -52 -25 -85 -25 -136v-80h-62v43c0 102 17 129 48 173h39z" />
    <glyph glyph-name="quoteright" unicode="&#x2019;" horiz-adv-x="250" 
d="M169 745c0 -102 -17 -129 -48 -173h-39c17 52 25 85 25 136v80h62v-43z" />
    <glyph glyph-name="divide" unicode="&#xf7;" horiz-adv-x="550" 
d="M328 371c0 -32 -24 -56 -58 -56c-29 0 -53 25 -53 56s25 56 56 56s55 -24 55 -56zM464 198h-379v55h379v-55zM328 81c0 -32 -24 -56 -58 -56c-29 0 -53 25 -53 56s25 56 56 56s55 -24 55 -56z" />
    <glyph glyph-name="lozenge" unicode="&#x25ca;" horiz-adv-x="494" 
d="M466 377l-194 -377h-60l-194 377l194 368h60zM406 377l-164 314l-164 -314l164 -323z" />
    <glyph glyph-name="ydieresis" unicode="&#xff;" horiz-adv-x="459" 
d="M354 541h-50v60h50v-60zM163 541h-50v60h50v-60zM420 468l-160 -530c-31 -103 -84 -142 -150 -142c-24 0 -41 3 -61 9l15 49c16 -6 30 -10 47 -10c79 0 99 95 101 123l-172 501h59l142 -426l122 426h57z" />
    <glyph glyph-name="Ydieresis" unicode="&#x178;" horiz-adv-x="580" 
d="M419 841h-50v60h50v-60zM228 841h-50v60h50v-60zM576 786l-256 -414v-372h-60v371l-257 414h68l222 -355l218 356h65z" />
    <glyph glyph-name="fraction" unicode="&#x2044;" horiz-adv-x="100" 
d="M207 786l-291 -785l-48 -1l290 786h49z" />
    <glyph glyph-name="currency" unicode="&#xa4;" 
d="M470 677l-95 -93c14 -23 21 -49 21 -77c0 -35 -12 -65 -32 -90l104 -104l-26 -25l-103 104c-26 -18 -57 -29 -91 -29c-28 0 -53 8 -75 21l-94 -94l-25 26l91 90c-25 27 -41 65 -41 105c0 34 11 64 30 88l-79 80l26 25l79 -80c26 20 58 31 92 31c41 0 76 -16 102 -43
l91 91zM362 507c0 61 -47 114 -110 114c-61 0 -114 -47 -114 -110c0 -61 47 -114 110 -114c61 0 114 47 114 110z" />
    <glyph glyph-name="guilsinglleft" unicode="&#x2039;" horiz-adv-x="274" 
d="M209 55l-152 152v67l152 151v-75l-111 -110l111 -110v-75z" />
    <glyph glyph-name="guilsinglright" unicode="&#x203a;" horiz-adv-x="274" 
d="M217 206l-152 -150v74l111 110l-111 110v74l152 -151v-67z" />
    <glyph glyph-name="fi" unicode="&#xfb01;" horiz-adv-x="537" 
d="M427 578h-54v117h54v-117zM427 0h-54v421h-207v-421h-56v421h-78v47h78v195c0 122 66 125 152 125v-45c-71 0 -96 1 -96 -88v-187h215h46v-468z" />
    <glyph glyph-name="fl" unicode="&#xfb02;" horiz-adv-x="577" 
d="M262 743c-71 0 -96 1 -96 -88v-187h95v-47h-95v-421h-56v421h-78v47h78v195c0 122 66 125 152 125v-45zM467 0h-54v787h54v-787z" />
    <glyph glyph-name="daggerdbl" unicode="&#x2021;" horiz-adv-x="510" 
d="M494 110h-203v-297h-71v297h-204v61h204v324h-204v63h204v228h71v-228h203v-63h-203v-324h203v-61z" />
    <glyph glyph-name="periodcentered" unicode="&#xb7;" 
d="M353 313l-101 -119l-104 123l104 119z" />
    <glyph glyph-name="quotesinglbase" unicode="&#x201a;" horiz-adv-x="247" 
d="M158 39c0 -102 -17 -129 -48 -173h-39c17 52 25 85 25 136v80h62v-43z" />
    <glyph glyph-name="quotedblbase" unicode="&#x201e;" horiz-adv-x="407" 
d="M318 37c0 -102 -17 -129 -48 -173h-39c17 52 25 85 25 136v80h62v-43zM158 37c0 -102 -17 -129 -48 -173h-39c17 52 25 85 25 136v80h62v-43z" />
    <glyph glyph-name="perthousand" unicode="&#x2030;" horiz-adv-x="1440" 
d="M427 630c0 -98 -81 -177 -179 -177s-177 79 -177 177s79 177 177 177s179 -79 179 -177zM660 785l-281 -785h-55l280 785h56zM1360 162c0 -98 -81 -177 -179 -177s-177 79 -177 177s79 177 177 177s179 -79 179 -177zM920 162c0 -98 -81 -177 -179 -177s-177 79 -177 177
s79 177 177 177s179 -79 179 -177zM374 630c0 69 -56 125 -125 125s-125 -56 -125 -125s56 -125 125 -125s125 56 125 125zM1307 162c0 69 -56 125 -125 125s-125 -56 -125 -125s56 -125 125 -125s125 56 125 125zM867 162c0 69 -56 125 -125 125s-125 -56 -125 -125
s56 -125 125 -125s125 56 125 125z" />
    <glyph glyph-name="Acircumflex" unicode="&#xc2;" horiz-adv-x="673" 
d="M451 851h-48l-65 101l-64 -101h-48l80 125h64zM628 0h-61l-90 265h-281l-90 -265h-61l289 822zM455 315l-125 349l-117 -349h242z" />
    <glyph glyph-name="Ecircumflex" unicode="&#xca;" horiz-adv-x="577" 
d="M441 851h-48l-65 101l-64 -101h-48l80 125h64zM547 0h-420v786h394v-52h-334v-304h321v-52h-321v-326h360v-52z" />
    <glyph glyph-name="Aacute" unicode="&#xc1;" horiz-adv-x="673" 
d="M462 1033l-99 -183h-53l99 183h53zM628 0h-61l-90 265h-281l-90 -265h-61l289 822zM455 315l-125 349l-117 -349h242z" />
    <glyph glyph-name="Edieresis" unicode="&#xcb;" horiz-adv-x="577" 
d="M447 841h-50v60h50v-60zM256 841h-50v60h50v-60zM547 0h-420v786h394v-52h-334v-304h321v-52h-321v-326h360v-52z" />
    <glyph glyph-name="Egrave" unicode="&#xc8;" horiz-adv-x="577" 
d="M364 842h-56l-66 131h56zM547 0h-420v786h394v-52h-334v-304h321v-52h-321v-326h360v-52z" />
    <glyph glyph-name="Iacute" unicode="&#xcd;" horiz-adv-x="314" 
d="M280 1023l-99 -183h-53l99 183h53zM187 0h-60v786h60v-786z" />
    <glyph glyph-name="Icircumflex" unicode="&#xce;" horiz-adv-x="314" 
d="M271 841h-48l-65 101l-64 -101h-48l80 125h64zM187 0h-60v786h60v-786z" />
    <glyph glyph-name="Idieresis" unicode="&#xcf;" horiz-adv-x="314" 
d="M285 841h-50v60h50v-60zM94 841h-50v60h50v-60zM187 0h-60v786h60v-786z" />
    <glyph glyph-name="Igrave" unicode="&#xcc;" horiz-adv-x="314" 
d="M223 842h-56l-66 131h56zM187 0h-60v786h60v-786z" />
    <glyph glyph-name="Oacute" unicode="&#xd3;" horiz-adv-x="918" 
d="M560 1023l-99 -183h-53l99 183h53zM854 390c0 -222 -146 -403 -395 -403c-255 0 -395 181 -395 403c0 220 144 402 395 402c249 0 395 -182 395 -402zM789 390c0 218 -150 347 -330 347c-182 0 -330 -126 -330 -344c0 -211 148 -353 330 -353c180 0 330 133 330 350z" />
    <glyph glyph-name="Ocircumflex" unicode="&#xd4;" horiz-adv-x="918" 
d="M573 841h-48l-65 101l-64 -101h-48l80 125h64zM854 390c0 -222 -146 -403 -395 -403c-255 0 -395 181 -395 403c0 220 144 402 395 402c249 0 395 -182 395 -402zM789 390c0 218 -150 347 -330 347c-182 0 -330 -126 -330 -344c0 -211 148 -353 330 -353
c180 0 330 133 330 350z" />
    <glyph glyph-name="apple" horiz-adv-x="804" 
d="M672 272c0 -166 -110 -281 -203 -281c-50 0 -41 17 -60 17c-20 0 -10 -17 -68 -17c-50 0 -211 65 -211 288c0 114 48 164 135 164c75 0 80 -26 104 -26c32 0 15 61 14 107c-1 59 13 116 54 146c49 36 149 21 149 90h3c6 -16 19 -72 4 -134c-25 -108 -183 -86 -183 -153
c0 -25 3 -59 29 -59c19 0 21 29 106 29c119 0 127 -91 127 -171zM582 709c-19 -45 -60 -64 -102 -93c-47 -32 -65 -62 -80 -104c37 70 65 72 112 106c36 26 67 56 70 91zM312 137c-54 115 -3 130 -3 184c0 19 -2 41 -30 41c-41 0 -52 -35 -52 -62c0 -49 55 -125 85 -163z
" />
    <glyph glyph-name="Ograve" unicode="&#xd2;" horiz-adv-x="918" 
d="M505 842h-56l-66 131h56zM854 390c0 -222 -146 -403 -395 -403c-255 0 -395 181 -395 403c0 220 144 402 395 402c249 0 395 -182 395 -402zM789 390c0 218 -150 347 -330 347c-182 0 -330 -126 -330 -344c0 -211 148 -353 330 -353c180 0 330 133 330 350z" />
    <glyph glyph-name="Uacute" unicode="&#xda;" horiz-adv-x="827" 
d="M498 1023l-99 -183h-53l99 183h53zM718 314c0 -160 -94 -324 -301 -324c-208 0 -308 154 -308 324v473h60v-434c0 -199 98 -305 248 -305s241 105 241 305v434h60v-473z" />
    <glyph glyph-name="Ucircumflex" unicode="&#xdb;" horiz-adv-x="827" 
d="M535 841h-48l-65 101l-64 -101h-48l80 125h64zM718 314c0 -160 -94 -324 -301 -324c-208 0 -308 154 -308 324v473h60v-434c0 -199 98 -305 248 -305s241 105 241 305v434h60v-473z" />
    <glyph glyph-name="Ugrave" unicode="&#xd9;" horiz-adv-x="827" 
d="M453 842h-56l-66 131h56zM718 314c0 -160 -94 -324 -301 -324c-208 0 -308 154 -308 324v473h60v-434c0 -199 98 -305 248 -305s241 105 241 305v434h60v-473z" />
    <glyph glyph-name="dotlessi" unicode="&#x131;" horiz-adv-x="274" 
d="M164 0h-54v468h54v-468z" />
    <glyph glyph-name="circumflex" unicode="&#x2c6;" 
d="M370 541h-48l-65 101l-64 -101h-48l80 125h64z" />
    <glyph glyph-name="tilde" unicode="&#x2dc;" 
d="M382 606c-10 -44 -41 -66 -67 -66c-40 0 -91 25 -120 25c-11 0 -22 2 -29 -24h-49c8 34 29 66 63 66c45 0 87 -27 129 -27c10 0 20 7 23 26h50z" />
    <glyph glyph-name="macron" unicode="&#xaf;" 
d="M372 625h-226v82h226v-82z" />
    <glyph glyph-name="breve" unicode="&#x2d8;" 
d="M354 708l-13 -74c-12 -16 -84 -72 -170 -72c-61 0 -95 58 -100 76l20 72c13 -29 34 -76 99 -76c73 0 143 48 164 74z" />
    <glyph glyph-name="dotaccent" unicode="&#x2d9;" 
d="M398 633c0 -4 0 -8 -1 -12c-7 -36 -43 -66 -79 -66c-32 0 -54 23 -54 53c0 4 0 8 1 12c7 36 43 66 79 66c32 0 54 -23 54 -53z" />
    <glyph glyph-name="ring" unicode="&#x2da;" 
d="M327 617c0 -47 -34 -81 -79 -81s-79 34 -79 81c0 48 34 82 79 82c46 0 79 -34 79 -82zM307 617c0 31 -22 64 -59 64s-59 -34 -59 -64c0 -36 26 -63 59 -63c28 0 59 27 59 63z" />
    <glyph glyph-name="cedilla" unicode="&#xb8;" 
d="M308 -95c0 -7 -1 -15 -3 -23c-14 -72 -83 -97 -162 -97c-39 0 -70 9 -95 22l42 47c22 -11 36 -14 66 -14c29 0 70 0 78 43v6c0 23 -29 24 -46 24c-13 0 -27 -2 -51 -10l-16 23l76 114l59 -23l-44 -61c7 1 19 3 32 3c29 0 64 -9 64 -54z" />
    <glyph glyph-name="hungarumlaut" unicode="&#x2dd;" 
d="M473 671l-18 -96h-88l18 96h88zM302 671l-18 -96h-87l18 96h87z" />
    <glyph glyph-name="ogonek" unicode="&#x2db;" 
d="M280 -142c0 -1 -11 -60 -11 -60c-81 0 -183 5 -183 69c0 4 0 9 1 14c10 50 62 105 137 157l46 -28c-49 -43 -90 -76 -97 -113v-6c0 -30 42 -34 75 -34c13 0 25 1 32 1z" />
    <glyph glyph-name="caron" unicode="&#x2c7;" 
d="M370 667l-81 -125h-64l-80 125h48l64 -101l65 101h48z" />
    </font>
</defs>
</svg>
